<?xml version="1.0" encoding="UTF-8"?><svg xmlns="http://www.w3.org/2000/svg" xmlns:xlink="http://www.w3.org/1999/xlink" viewBox="0 0 135 137"><defs><style>.cls-1{fill:#f6d6d6;opacity:.35;}.cls-1,.cls-2,.cls-3,.cls-4,.cls-5,.cls-6,.cls-7,.cls-8,.cls-9,.cls-10,.cls-11{stroke-width:0px;}.cls-2{mix-blend-mode:multiply;opacity:.67;}.cls-2,.cls-8{fill:#ccc;}.cls-12{fill:#fff;filter:url(#drop-shadow-1);stroke:#e8eaea;stroke-width:.25px;}.cls-12,.cls-13{stroke-miterlimit:10;}.cls-3{opacity:.9;}.cls-3,.cls-9{fill:#a83e51;}.cls-13{fill:none;stroke:#ccc;}.cls-14{isolation:isolate;}.cls-4{fill:#f7f4f2;}.cls-5{fill:#f2e4da;}.cls-6{fill:#f9f8f7;}.cls-7{fill:#c8304c;}.cls-10{fill:#b3b3b3;}.cls-11{fill:#e8d3c8;}</style><filter id="drop-shadow-1" filterUnits="userSpaceOnUse"><feOffset dx="0" dy="4"/><feGaussianBlur result="blur" stdDeviation="4"/><feFlood flood-color="#000" flood-opacity=".5"/><feComposite in2="blur" operator="in"/><feComposite in="SourceGraphic"/></filter></defs><g class="cls-14"><g id="Layer_1"><circle class="cls-12" cx="67.5" cy="65.59" r="62.5"/><path class="cls-1" d="M125.37,50.73c1.75,7.36-1.24,15.31-5.46,20.93-4.21,5.62-9.59,9.68-14.14,14.88-6.28,7.19-10.87,16.44-17.25,23.49-6.39,7.05-15.75,11.69-23.49,7.17-7.84-4.58-11.15-16.73-18.68-22.04-7.48-5.27-17.16-2.49-25.07-6.69-9.56-5.08-14.12-20.1-11.37-32.54,2.75-12.44,11.52-21.91,21.35-26.11,9.58-4.1,20.35-3.73,29.73,1.02,8.08,4.09,15.04,11.23,23.32,14.67,8.21,3.41,16.22,2.27,24.28-.99,6.33-2.56,14.12-5.03,16.78,6.21Z"/><path class="cls-8" d="M93.54,71.47c-6.35-.57-11.41-8.74-11.41-18.69,0-2.43,1.08-5.57,1.66-7.8h9.75s.71,0,.71,0v-.78h-11.07s.02.21.02.21c-.65,2.33-1.79,5.68-1.79,8.37,0,10.77,5.75,19.5,12.84,19.5v-.81s-.71,0-.71,0Z"/><path class="cls-10" d="M94.61,71.47c6.35-.57,11.41-8.74,11.41-18.69,0-2.43-1.08-5.57-1.66-7.8h-9.75s-.71,0-.71,0v-.78h11.07l-.02.21c.65,2.33,1.79,5.68,1.79,8.37,0,10.77-5.75,19.5-12.84,19.5v-.81h.71Z"/><path class="cls-9" d="M93.89,59.8v10.78c-5.46.14-10.92-7.66-10.92-18.58,0,0,3.97-1.42,5.75,2.34,1.48,3.12,5.17,5.46,5.17,5.46Z"/><path class="cls-7" d="M104.34,58.25c-1.56,7.71-6.17,12.46-10.45,12.33v-10.78s.07.04.19.09c1.59.72,3.44.61,4.95-.26,2.13-1.23,5.64-3.03,5.3-1.38Z"/><rect class="cls-8" x="93.11" y="71.5" width=".78" height="18.72"/><rect class="cls-10" x="93.89" y="71.5" width=".78" height="18.72"/><path class="cls-8" d="M93.89,91.01h-7.02l.06-.07c.37-.46.88-.71,1.41-.71h5.56v.78Z"/><path class="cls-10" d="M93.89,91.01h7.02s-.06-.07-.06-.07c-.37-.46-.88-.71-1.41-.71h-5.56v.78Z"/><path class="cls-2" d="M76.55,89.73c0,.34-.15.67-.4.91s-.6.37-.97.37h0s-10.28-.06-10.28-.06l-10.32-.04h0c-.36,0-.71-.14-.96-.38-.26-.24-.4-.57-.39-.91l.23-44.14c0-.06-.07-5.74,6.47-9.69.25-.11,1.5-.92,1.51-5.74.01-5.28.59-14.41.59-14.5l.03-.47h-.34s0-.32,0-.32l.06-.38h-.47s-.05-1.47-.05-1.47h.47s0-1.3,0-1.3c.55-.2,1.84-.6,3.57-.59,1.73.01,3.02.42,3.56.63v.86s-.07.38-.07.38h.47s.05,1.47.05,1.47l.38.25-.85.51h-.34s.02.46.02.46c0,.09.48,9.23.44,14.51-.04,4.83,1.2,5.64,1.4,5.73,6.54,4.04,6.42,9.73,6.42,9.8l-.23,44.13Z"/><path class="cls-3" d="M68.96,25.36c.04,1.6.06,3.16.05,4.48-.04,4.74,1.11,5.3,1.11,5.3,6.41,4.2,6.19,10.06,6.19,10.06l-.23,43.66c0,.94-.78,1.71-1.72,1.7l-9.64-.06h.04s-9.64-.04-9.64-.04c-.94,0-1.71-.77-1.7-1.72l.23-43.66s-.16-5.87,6.3-9.99c0,0,1.15-.55,1.16-5.29,0-2,.09-4.55.19-6.93,0,0,1.79-1.32,3.96.87,2.16,2.19,3.71,1.62,3.71,1.62Z"/><path class="cls-9" d="M65.38,10.53c-1.8,0-3.13.46-3.6.65-.12.05-.19.16-.19.29v.93s3.9.03,3.9.03v-1.9s-.14,0-.14,0"/><path class="cls-7" d="M65.19,10.53c1.8,0,3.12.49,3.6.69.12.05.19.16.19.29v.93s-3.91-.01-3.91-.01v-1.9s.16,0,.16,0"/><path class="cls-4" d="M56.37,46.56h8.44v25.07h-8.44c-1.1,0-2-.9-2-2v-21.07c0-1.1.9-2,2-2Z" transform="translate(.31 -.31) rotate(.3)"/><path class="cls-6" d="M64.82,46.61h8.44c1.1,0,2,.9,2,2v21.07c0,1.1-.9,2-2,2h-8.44v-25.07h0Z" transform="translate(.31 -.36) rotate(.3)"/><rect class="cls-8" x="56.28" y="50.71" width="16.85" height="1.98" rx=".82" ry=".82" transform="translate(.27 -.34) rotate(.3)"/><circle class="cls-8" cx="64.59" cy="61.59" r="6.74"/><line class="cls-13" x1="61.55" y1="16.97" x2="68.52" y2="17.01"/><line class="cls-13" x1="61.07" y1="26.33" x2="68.9" y2="26.37"/><path class="cls-8" d="M70.34,34.77s-.93-.71-.89-4.93c.04-4.7-.32-12.47-.4-14.1.02-.02.04-.04.07-.06.14-.14.22-.32.22-.52v-.15c.23-.14.38-.4.38-.69v-1.51c0-.29-.14-.54-.37-.69v-.62c0-.3-.17-.58-.45-.7-.5-.21-1.87-.71-3.72-.72-.01,0-.03,0-.04,0-1.85,0-3.22.48-3.72.69-.28.12-.46.39-.46.69v.62c-.23.14-.38.4-.39.69v1.51c0,.29.14.54.37.69v.15c0,.2.07.38.21.52.02.02.04.04.06.06-.09,1.63-.53,9.39-.54,14.1-.01,4.21-.94,4.91-.96,4.92-6.59,4.21-6.5,10.12-6.5,10.36l-.23,43.66c0,.57.22,1.11.62,1.52.4.41.94.63,1.51.64h0s9.62.04,9.62.04l9.62.06h0c.57,0,1.11-.22,1.52-.62.41-.4.63-.94.64-1.52l.23-43.65c0-.25.15-6.16-6.4-10.45ZM75.64,88.87c0,.34-.14.66-.38.9s-.56.37-.9.37h0s-9.6-.06-9.6-.06l-9.64-.04h0c-.34,0-.66-.14-.9-.38-.24-.24-.37-.56-.37-.9l.23-43.68c0-.06-.06-5.68,6.05-9.59.23-.11,1.4-.91,1.41-5.68.02-5.22.55-14.26.56-14.35l.03-.46h-.32s0-.32,0-.32l.06-.38h-.44s-.05-1.46-.05-1.46h.44s0-1.28,0-1.28c.51-.2,1.72-.59,3.33-.59,1.61.01,2.82.42,3.32.62v.85s-.06.38-.06.38h.44s.05,1.46.05,1.46h-.44s0,.75,0,.75h-.32s.02.46.02.46c0,.09.45,9.13.41,14.36-.04,4.78,1.12,5.58,1.31,5.67,6.11,4,6,9.62,5.99,9.69l-.23,43.66Z"/><path class="cls-9" d="M48.66,95.27H12.49c5.39,9.96,13.41,18.29,23.12,24.07h13.05c1.05,0,1.91-.85,1.91-1.91v-20.25c0-1.05-.85-1.91-1.91-1.91Z"/><path class="cls-7" d="M36.55,119.88h11.01c1.67,0,3.01-.89,3.01-2v-10.03h-29.11c4.36,4.75,9.45,8.81,15.09,12.03Z"/><path class="cls-5" d="M50.57,98.28l6.45-2.58c.7-.28,1.46-.43,2.21-.43h9.38l3.52.88c1.56.39,2.8,1.55,3.31,3.07l.35,1.06c.17.52.78.76,1.26.48l9.6-5.49h6.02c0,1.9-.85,3.71-2.33,4.91l-13.02,10.65c-.78.64-1.74,1.01-2.75,1.07l-24.02,1.42v-15.05Z"/><path class="cls-8" d="M76.54,95.27h-39.85c-1.47,0-2.66-.84-2.66-1.87v-.77c0-1.03,1.19-1.87,2.66-1.87h39.85v4.51Z"/><path class="cls-10" d="M75.74,95.27h39.85c1.47,0,2.66-.84,2.66-1.87v-.77c0-1.03-1.19-1.87-2.66-1.87h-39.85v4.51Z"/><polygon class="cls-11" points="86.67 95.27 77.64 101.29 62.6 99.79 76.14 99.79 86.67 95.27"/></g></g></svg>