<?xml version="1.0" encoding="UTF-8"?><svg xmlns="http://www.w3.org/2000/svg" xmlns:xlink="http://www.w3.org/1999/xlink" viewBox="0 0 135 137"><defs><style>.cls-1{fill:#f6d6d6;opacity:.35;}.cls-1,.cls-2,.cls-3,.cls-4,.cls-5,.cls-6,.cls-7,.cls-8,.cls-9,.cls-10,.cls-11{stroke-width:0px;}.cls-2{opacity:.67;}.cls-2,.cls-3{mix-blend-mode:multiply;}.cls-2,.cls-8{fill:#ccc;}.cls-3{opacity:.35;}.cls-3,.cls-9{fill:#c7b299;}.cls-12{filter:url(#drop-shadow-1);}.cls-12,.cls-13,.cls-14{stroke-width:.25px;}.cls-12,.cls-13,.cls-14,.cls-15{stroke-miterlimit:10;}.cls-12,.cls-14{fill:#fff;stroke:#e8eaea;}.cls-13{fill:#e8eaea;stroke:#fff;}.cls-4{opacity:.9;}.cls-4,.cls-10{fill:#a83e51;}.cls-15{fill:none;stroke:#ccc;}.cls-16{isolation:isolate;}.cls-5{fill:#f7f4f2;}.cls-6{fill:#f9f8f7;}.cls-7{fill:#c8304c;}.cls-11{fill:#b3b3b3;}</style><filter id="drop-shadow-1" filterUnits="userSpaceOnUse"><feOffset dx="0" dy="4"/><feGaussianBlur result="blur" stdDeviation="4"/><feFlood flood-color="#000" flood-opacity=".5"/><feComposite in2="blur" operator="in"/><feComposite in="SourceGraphic"/></filter></defs><g class="cls-16"><g id="Layer_1"><circle class="cls-12" cx="67.5" cy="65.59" r="62.5"/><path class="cls-1" d="M125.37,50.73c1.75,7.36-1.24,15.31-5.46,20.93-4.21,5.62-9.59,9.68-14.14,14.88-6.28,7.19-10.87,16.44-17.25,23.49-6.39,7.05-15.75,11.69-23.49,7.17-7.84-4.58-11.15-16.73-18.68-22.04-7.48-5.27-17.16-2.49-25.07-6.69-9.56-5.08-14.12-20.1-11.37-32.54,2.75-12.44,11.52-21.91,21.35-26.11,9.58-4.1,20.35-3.73,29.73,1.02,8.08,4.09,15.04,11.23,23.32,14.67,8.21,3.41,16.22,2.27,24.28-.99,6.33-2.56,14.12-5.03,16.78,6.21Z"/><rect class="cls-9" x="30.03" y="28.33" width="63.77" height="78.65" rx="2.18" ry="2.18"/><path class="cls-3" d="M61.92,106.98h30.43c.8,0,1.45-.65,1.45-1.45V29.78c0-.8-.65-1.45-1.45-1.45h-30.43v78.65Z"/><path class="cls-14" d="M46.57,102.6h41.14c.46,0,.82-.37.82-.82V32.23c0-.46-.37-.82-.82-.82h-51.57c-.46,0-.82.37-.82.82v58.37l11.26,12Z"/><rect class="cls-13" x="52.39" y="41.71" width="31.93" height="2" rx="1" ry="1"/><rect class="cls-13" x="52.39" y="46.36" width="19.29" height="2" rx="1" ry="1"/><path class="cls-7" d="M45.67,49.69c-2.76,0-4.99-2.23-4.99-4.99s2.23-4.99,4.99-4.99v9.98Z"/><path class="cls-10" d="M45.34,49.69c2.76,0,4.99-2.23,4.99-4.99s-2.23-4.99-4.99-4.99v9.98Z"/><path class="cls-8" d="M42.98,50.35v-1.1s-.04-1.31,1.4-2.24c0,0,.26-.12.25-1.19,0-1.19.11-3.22.11-3.22h0s-.07-.03-.07-.07v-.1s0,0,0,0c-.05,0-.08-.04-.08-.08v-.34s.04-.08.08-.08h0v-.21s.02-.05.04-.07c.11-.04.4-.15.8-.15v8.84h-2.54Z"/><path class="cls-11" d="M48.03,50.35v-1.1s.04-1.31-1.4-2.24c0,0-.26-.12-.25-1.19,0-1.19-.11-3.22-.11-3.22h0s.07-.03.07-.07v-.1s0,0,0,0c.05,0,.08-.04.08-.08v-.34s-.04-.08-.08-.08h0v-.21s-.02-.05-.04-.07c-.11-.04-.4-.15-.8-.15v8.84h2.54Z"/><rect class="cls-13" x="52.39" y="56.79" width="31.93" height="2" rx="1" ry="1"/><rect class="cls-13" x="52.39" y="61.45" width="19.29" height="2" rx="1" ry="1"/><path class="cls-7" d="M45.67,64.77c-2.76,0-4.99-2.23-4.99-4.99s2.23-4.99,4.99-4.99v9.98Z"/><path class="cls-10" d="M45.34,64.77c2.76,0,4.99-2.23,4.99-4.99s-2.23-4.99-4.99-4.99v9.98Z"/><path class="cls-8" d="M42.98,65.44v-1.1s-.04-1.31,1.4-2.24c0,0,.26-.12.25-1.19,0-1.19.11-3.22.11-3.22h0s-.07-.03-.07-.07v-.1s0,0,0,0c-.05,0-.08-.04-.08-.08v-.34s.04-.08.08-.08h0v-.21s.02-.05.04-.07c.11-.04.4-.15.8-.15v8.84h-2.54Z"/><path class="cls-11" d="M48.03,65.44v-1.1s.04-1.31-1.4-2.24c0,0-.26-.12-.25-1.19,0-1.19-.11-3.22-.11-3.22h0s.07-.03.07-.07v-.1s0,0,0,0c.05,0,.08-.04.08-.08v-.34s-.04-.08-.08-.08h0v-.21s-.02-.05-.04-.07c-.11-.04-.4-.15-.8-.15v8.84h2.54Z"/><rect class="cls-13" x="52.39" y="71.88" width="31.93" height="2" rx="1" ry="1"/><rect class="cls-13" x="52.39" y="76.53" width="19.29" height="2" rx="1" ry="1"/><path class="cls-7" d="M45.67,79.86c-2.76,0-4.99-2.23-4.99-4.99s2.23-4.99,4.99-4.99v9.98Z"/><path class="cls-10" d="M45.34,79.86c2.76,0,4.99-2.23,4.99-4.99s-2.23-4.99-4.99-4.99v9.98Z"/><path class="cls-8" d="M42.98,80.52v-1.1s-.04-1.31,1.4-2.24c0,0,.26-.12.25-1.19,0-1.19.11-3.22.11-3.22h0s-.07-.03-.07-.07v-.1s0,0,0,0c-.05,0-.08-.04-.08-.08v-.34s.04-.08.08-.08h0v-.21s.02-.05.04-.07c.11-.04.4-.15.8-.15v8.84h-2.54Z"/><path class="cls-11" d="M48.03,80.52v-1.1s.04-1.31-1.4-2.24c0,0-.26-.12-.25-1.19,0-1.19-.11-3.22-.11-3.22h0s.07-.03.07-.07v-.1s0,0,0,0c.05,0,.08-.04.08-.08v-.34s-.04-.08-.08-.08h0v-.21s-.02-.05-.04-.07c-.11-.04-.4-.15-.8-.15v8.84h2.54Z"/><rect class="cls-13" x="52.39" y="86.96" width="31.93" height="2" rx="1" ry="1"/><rect class="cls-13" x="52.39" y="91.62" width="19.29" height="2" rx="1" ry="1"/><path class="cls-7" d="M45.67,94.94c-2.76,0-4.99-2.23-4.99-4.99s2.23-4.99,4.99-4.99v9.98Z"/><path class="cls-10" d="M45.34,94.94c2.76,0,4.99-2.23,4.99-4.99s-2.23-4.99-4.99-4.99v9.98Z"/><path class="cls-8" d="M42.98,95.61v-1.1s-.04-1.31,1.4-2.24c0,0,.26-.12.25-1.19,0-1.19.11-3.22.11-3.22h0s-.07-.03-.07-.07v-.1s0,0,0,0c-.05,0-.08-.04-.08-.08v-.34s.04-.08.08-.08h0v-.21s.02-.05.04-.07c.11-.04.4-.15.8-.15v8.84h-2.54Z"/><path class="cls-11" d="M48.03,95.61v-1.1s.04-1.31-1.4-2.24c0,0-.26-.12-.25-1.19,0-1.19-.11-3.22-.11-3.22h0s.07-.03.07-.07v-.1s0,0,0,0c.05,0,.08-.04.08-.08v-.34s-.04-.08-.08-.08h0v-.21s-.02-.05-.04-.07c-.11-.04-.4-.15-.8-.15v8.84h2.54Z"/><rect class="cls-11" x="52.39" y="38.46" width="10.64" height="1.33" rx=".67" ry=".67"/><rect class="cls-11" x="52.39" y="53.76" width="10.64" height="1.33" rx=".67" ry=".67"/><rect class="cls-11" x="52.39" y="69.06" width="10.64" height="1.33" rx=".67" ry=".67"/><rect class="cls-11" x="52.39" y="83.7" width="10.64" height="1.33" rx=".67" ry=".67"/><path class="cls-8" d="M62.98,35.14h-12.96c-1.06,0-1.92-.72-1.92-1.6v-7.44c0-.88.86-1.6,1.92-1.6h12.96v10.64Z"/><path class="cls-11" d="M62.73,35.14h12.96c1.06,0,1.92-.72,1.92-1.6v-7.44c0-.88-.86-1.6-1.92-1.6h-12.96v10.64Z"/><path class="cls-8" d="M62.62,17.91v1.93c1.47,0,2.66,1.04,2.66,2.33s-1.19,2.33-2.66,2.33v4.04c2.93,0,5.31-2.38,5.31-5.31s-2.38-5.31-5.31-5.31Z"/><path class="cls-11" d="M63.04,17.91v1.93c-1.47,0-2.66,1.04-2.66,2.33s1.19,2.33,2.66,2.33v4.04c-2.93,0-5.31-2.38-5.31-5.31s2.38-5.31,5.31-5.31Z"/><path class="cls-2" d="M104.75,105.82c0,.32-.14.63-.38.85s-.57.35-.91.35h0s-9.67-.06-9.67-.06l-9.71-.04h0c-.34,0-.66-.13-.9-.36-.24-.23-.37-.53-.37-.86l.22-41.53c0-.05-.06-5.4,6.09-9.12.23-.11,1.41-.86,1.42-5.4.01-4.97.55-13.56.56-13.64l.03-.44h-.32s0-.3,0-.3l.06-.36h-.44s-.05-1.39-.05-1.39h.44s0-1.22,0-1.22c.52-.19,1.73-.56,3.35-.56,1.63.01,2.84.4,3.35.59v.81s-.06.36-.06.36h.44s.05,1.39.05,1.39l.35.24-.8.48h-.32s.02.44.02.44c0,.09.45,8.68.42,13.65-.03,4.54,1.13,5.31,1.32,5.39,6.16,3.8,6.04,9.15,6.04,9.22l-.22,41.51Z"/><path class="cls-4" d="M97.61,45.51c.03,1.5.05,2.97.04,4.22-.03,4.46,1.04,4.99,1.04,4.99,6.03,3.95,5.82,9.46,5.82,9.46l-.21,41.08c0,.89-.73,1.61-1.62,1.6l-9.07-.06h.04s-9.07-.04-9.07-.04c-.89,0-1.61-.73-1.6-1.62l.21-41.08s-.15-5.52,5.92-9.4c0,0,1.08-.52,1.09-4.98,0-1.88.08-4.28.18-6.52,0,0,1.69-1.24,3.72.82s3.49,1.53,3.49,1.53Z"/><path class="cls-10" d="M94.25,31.56c-1.69,0-2.94.43-3.39.61-.11.05-.18.15-.18.27v.87s3.67.03,3.67.03v-1.79s-.13,0-.13,0"/><path class="cls-7" d="M94.07,31.56c1.69,0,2.94.46,3.38.65.11.05.18.15.18.27v.87s-3.68-.01-3.68-.01v-1.79s.15,0,.15,0"/><path class="cls-5" d="M85.89,65.45h7.82v23.59h-7.82c-1.1,0-2-.9-2-2v-19.59c0-1.1.9-2,2-2Z" transform="translate(.4 -.46) rotate(.3)"/><path class="cls-6" d="M93.72,65.51h7.82c1.1,0,2,.9,2,2v19.59c0,1.1-.9,2-2,2h-7.82v-23.59h0Z" transform="translate(.4 -.51) rotate(.3)"/><rect class="cls-8" x="85.68" y="69.36" width="15.85" height="1.87" rx=".82" ry=".82" transform="translate(.37 -.49) rotate(.3)"/><circle class="cls-8" cx="93.5" cy="79.59" r="6.34"/><line class="cls-15" x1="90.65" y1="37.62" x2="97.2" y2="37.66"/><line class="cls-15" x1="90.19" y1="46.42" x2="97.56" y2="46.46"/><path class="cls-8" d="M98.91,54.37s-.87-.67-.84-4.63c.03-4.42-.3-11.73-.37-13.27.02-.02.04-.04.06-.05.13-.13.2-.3.2-.49v-.14c.22-.14.36-.37.36-.65v-1.42c0-.27-.13-.51-.35-.65v-.58c0-.29-.16-.54-.43-.65-.47-.2-1.76-.67-3.5-.68-.01,0-.02,0-.04,0-1.74,0-3.03.45-3.5.64-.26.11-.43.36-.44.65v.58c-.22.14-.36.37-.36.65v1.42c0,.27.13.51.35.65v.14c0,.18.07.36.2.49.02.02.04.04.06.05-.09,1.53-.5,8.84-.51,13.26-.01,3.96-.88,4.62-.9,4.63-6.2,3.96-6.12,9.52-6.11,9.75l-.21,41.08c0,.54.2,1.05.58,1.43.38.38.88.6,1.42.6h0s9.05.04,9.05.04l9.05.06h0c.54,0,1.05-.2,1.43-.58.38-.38.6-.89.6-1.43l.21-41.06c0-.23.14-5.79-6.02-9.83ZM103.9,105.26c0,.32-.13.62-.36.85s-.53.35-.85.35h0s-9.03-.06-9.03-.06l-9.07-.04h0c-.32,0-.62-.13-.84-.35-.23-.23-.35-.53-.35-.85l.21-41.09c0-.05-.06-5.34,5.69-9.02.22-.1,1.31-.85,1.33-5.35.01-4.91.52-13.42.53-13.5l.03-.43h-.3s0-.3,0-.3l.06-.36h-.41s-.05-1.37-.05-1.37h.41s0-1.21,0-1.21c.48-.19,1.62-.56,3.13-.55,1.52.01,2.65.39,3.13.59v.8s-.06.36-.06.36h.41s.05,1.37.05,1.37h-.41s0,.71,0,.71h-.3s.02.43.02.43c0,.09.42,8.59.39,13.51-.03,4.49,1.05,5.25,1.23,5.34,5.75,3.76,5.64,9.05,5.64,9.12l-.21,41.08Z"/><polyline class="cls-14" points="35.1 90.35 46.41 91.01 46.41 102.32 35.1 90.35"/></g></g></svg>