<?xml version="1.0" encoding="UTF-8"?><svg xmlns="http://www.w3.org/2000/svg" xmlns:xlink="http://www.w3.org/1999/xlink" viewBox="0 0 135 137"><defs><style>.cls-1,.cls-2,.cls-3,.cls-4,.cls-5,.cls-6,.cls-7,.cls-8,.cls-9,.cls-10,.cls-11,.cls-12,.cls-13{stroke-width:0px;}.cls-1,.cls-2,.cls-5,.cls-14{mix-blend-mode:multiply;}.cls-1,.cls-7{fill:#f9f8f7;}.cls-2,.cls-5,.cls-10{fill:#ccc;}.cls-3{fill:#f6d6d6;opacity:.35;}.cls-15{fill:#fff;filter:url(#drop-shadow-1);stroke:#e8eaea;stroke-width:.25px;}.cls-15,.cls-16{stroke-miterlimit:10;}.cls-4{opacity:.9;}.cls-4,.cls-12{fill:#a83e51;}.cls-16{fill:none;stroke:#ccc;}.cls-17,.cls-14{opacity:.24;}.cls-5{opacity:.5;}.cls-18{isolation:isolate;}.cls-6{fill:#f7f4f2;}.cls-8{fill:#c8304c;}.cls-9{fill:#d0edf4;}.cls-11{fill:#dcf3f9;}.cls-13{fill:#b3b3b3;}</style><filter id="drop-shadow-1" filterUnits="userSpaceOnUse"><feOffset dx="0" dy="4"/><feGaussianBlur result="blur" stdDeviation="4"/><feFlood flood-color="#000" flood-opacity=".5"/><feComposite in2="blur" operator="in"/><feComposite in="SourceGraphic"/></filter></defs><g class="cls-18"><g id="Layer_1"><circle class="cls-15" cx="67.5" cy="65.59" r="62.5"/><path class="cls-3" d="M125.19,50.07c1.75,7.36-1.24,15.31-5.46,20.93s-9.59,9.68-14.14,14.88c-6.28,7.19-10.87,16.44-17.25,23.49s-15.75,11.69-23.49,7.17c-7.84-4.58-11.15-16.73-18.68-22.04-7.48-5.27-17.16-2.49-25.07-6.69-9.56-5.08-14.12-20.1-11.37-32.54,2.75-12.44,11.52-21.91,21.35-26.11,9.58-4.1,20.35-3.73,29.73,1.02,8.08,4.09,15.04,11.23,23.32,14.67,8.21,3.41,16.22,2.27,24.28-.99,6.33-2.56,14.12-5.03,16.78,6.21Z"/><path class="cls-4" d="M97.63,35.9c-.56,1.63-1.12,3.22-1.63,4.56-1.81,4.8-.86,5.79-.86,5.79,4.93,6.66,2.52,12.52,2.52,12.52l-16.57,44.22c-.36.96-1.43,1.44-2.38,1.08l-9.76-3.67.04.02-9.77-3.65c-.96-.36-1.44-1.42-1.08-2.38l16.57-44.22s2.03-6.01,10.13-7.78c0,0,1.37-.13,3.16-4.93.76-2.03,1.79-4.58,2.78-6.97,0,0,2.31-.67,3.69,2.36,1.38,3.03,3.16,3.04,3.16,3.04Z"/><path class="cls-12" d="M99.56,19.51c-1.82-.68-3.34-.71-3.9-.69-.14,0-.26.09-.3.22l-.35.94,3.95,1.49.72-1.92-.16-.06"/><path class="cls-8" d="M99.36,19.44c1.82.68,2.99,1.67,3.39,2.05.1.09.13.24.08.37l-.35.94-3.96-1.48.72-1.92.16.06"/><path class="cls-6" d="M71.87,53.06h9.29v27.11h-9.29c-1.1,0-2-.9-2-2v-23.11c0-1.1.9-2,2-2Z" transform="translate(28.18 -22.26) rotate(20.54)"/><path class="cls-7" d="M80.44,57.02h9.29c1.1,0,2,.9,2,2v23.11c0,1.1-.9,2-2,2h-9.29v-27.11h0Z" transform="translate(30.24 -25.72) rotate(20.54)"/><rect class="cls-10" x="74.35" y="59.96" width="18.22" height="2.14" rx=".82" ry=".82" transform="translate(26.72 -25.4) rotate(20.54)"/><circle class="cls-10" cx="79.64" cy="71.01" r="7.29"/><line class="cls-16" x1="93.26" y1="24.62" x2="100.31" y2="27.26"/><line class="cls-16" x1="89.27" y1="33.92" x2="97.2" y2="36.9"/><path class="cls-10" d="M95.51,45.96s-.67-1.07.94-5.33c1.8-4.76,4.34-12.77,4.87-14.45.03,0,.06-.02.09-.03.19-.09.34-.24.41-.44l.06-.15c.28-.06.53-.26.64-.55l.57-1.53c.11-.29.05-.61-.12-.84l.24-.63c.12-.31.04-.65-.2-.88-.43-.4-1.63-1.42-3.5-2.13-.01,0-.03,0-.04-.02-1.87-.69-3.44-.72-4.04-.7-.33.01-.61.22-.73.53l-.24.63c-.28.06-.53.26-.64.55l-.57,1.53c-.11.29-.05.61.12.84l-.06.15c-.07.2-.07.41.02.61.01.03.03.06.04.08-.7,1.62-4.05,9.33-5.82,14.1-1.59,4.27-2.79,4.63-2.82,4.64-8.26,1.81-10.39,7.84-10.47,8.08l-16.57,44.22c-.22.58-.2,1.21.06,1.78.26.56.72.99,1.3,1.21h0s9.74,3.64,9.74,3.64l9.74,3.66h0c.58.22,1.21.2,1.77-.06.56-.26,1-.72,1.21-1.3l16.56-44.2c.1-.25,2.46-6.19-2.59-13ZM80.65,102.83c-.13.34-.38.62-.72.77s-.71.16-1.05.04h0s-9.72-3.65-9.72-3.65l-9.77-3.65h0c-.34-.13-.62-.38-.77-.72-.15-.33-.17-.71-.04-1.05l16.57-44.23c.02-.06,2.07-5.78,9.72-7.47.28-.03,1.76-.4,3.56-5.24,1.97-5.29,5.9-14.26,5.94-14.35l.2-.46-.32-.12.12-.32.2-.36-.44-.17.49-1.5.44.17.49-1.3c.59-.01,1.97.04,3.6.65,1.63.62,2.7,1.48,3.14,1.88l-.32.86-.2.36.44.17-.49,1.5-.44-.17-.29.77-.32-.12-.15.48c-.03.09-2.96,9.43-4.96,14.72-1.82,4.83-.95,6.08-.8,6.24,4.7,6.35,2.48,12.01,2.45,12.08l-16.57,44.22Z"/><g class="cls-14"><polygon class="cls-2" points="67.64 65.44 38.16 65.44 36.22 54.95 67.64 54.95 67.64 65.44"/><polygon class="cls-1" points="67.58 65.44 97.06 65.44 99 54.95 67.58 54.95 67.58 65.44"/></g><polygon class="cls-11" points="39.45 76.44 43.44 73.82 45.76 77.74 48.07 76.43 50.38 80.34 49.23 81.65 53.85 81.65 53.85 84.26 57.33 84.26 57.33 88.17 60.8 85.56 63.89 88.97 61.95 90.78 67.37 91.66 67.74 88.17 72.37 89.47 72.37 92.08 75.84 89.47 78.15 92.08 80.47 92.08 80.47 89.47 85.09 89.47 86.25 85.56 90.88 85.56 92.82 88.02 87.41 116.86 46.91 116.86 39.45 76.44"/><polygon class="cls-9" points="41.1 81.99 44.93 79.69 47.15 83.13 49.37 81.98 51.59 85.42 50.48 86.57 54.92 86.57 54.92 88.86 58.25 88.86 58.25 92.3 61.58 90.01 64.55 93.01 62.69 94.59 67.88 95.36 68.24 92.3 72.68 93.44 72.68 95.74 76.01 93.44 78.23 95.74 80.45 95.74 80.45 93.44 84.9 93.44 86.01 90.01 90.45 90.01 92.31 92.17 87.12 117.51 48.26 117.51 41.1 81.99"/><g class="cls-17"><polygon class="cls-2" points="67.8 116.92 48.11 116.92 37.67 65.89 67.8 65.89 67.8 116.92"/><polygon class="cls-1" points="67.58 116.92 87.27 116.92 97.7 65.89 67.58 65.89 67.58 116.92"/></g><path class="cls-13" d="M105.24,50.63H29.76c-1.2,0-2.17.97-2.17,2.17v2.96c0,1.34,1.08,2.42,2.42,2.42l4.53-2.16,12.27,61.6c.12.56.61.97,1.19.97h39.01c.58,0,1.07-.4,1.19-.97l12.27-61.6,4.53,2.16c1.34,0,2.42-1.08,2.42-2.42v-2.96c0-1.2-.97-2.17-2.17-2.17ZM86.67,116.97h-38.35l-10.16-51.02h58.67l-10.16,51.02ZM36.53,55.26h61.92l-2.08,9.61h-57.92l-1.92-9.61ZM105.79,55.76c0,.35-.22.64-.53.75l-4.73-2.25c-.22-.1-.45-.12-.67-.08h0s-64.72,0-64.72,0h0c-.22-.04-.45-.02-.67.09l-4.73,2.25c-.31-.11-.53-.41-.53-.75v-2.96c0-.3.25-.55.55-.55h75.48c.3,0,.55.25.55.55v2.96Z"/><path class="cls-5" d="M105.79,55.76c0,.35-.22.64-.53.75l-4.73-2.25c-.22-.1-.45-.12-.67-.08h0s-64.72,0-64.72,0h0c-.22-.04-.45-.02-.67.09l-4.73,2.25c-.31-.11-.53-.41-.53-.75v-2.96c0-.3.25-.55.55-.55h75.48c.3,0,.55.25.55.55v2.96Z"/></g></g></svg>