<svg width="1521" height="857" viewBox="0 0 1521 857" fill="none" xmlns="http://www.w3.org/2000/svg">
<g clip-path="url(#clip0_864_8)">
<rect width="1521" height="857" fill="white"/>
<path d="M554 636C448.824 811.294 104.672 762.703 0.000329971 746L0 -7H942C995.449 189.257 816 414 664 464C482.424 523.729 680 426 554 636Z" fill="url(#paint0_linear_864_8)"/>
<path d="M299.98 443.855C273.82 630.614 89.0935 603.435 0 588V-22L774 -12C819.495 169.357 718.711 255.224 664 278C542.431 328.608 332.679 210.406 299.98 443.855Z" fill="url(#paint1_linear_864_8)"/>
<path d="M227.795 265.129C207.229 401.096 70.0424 416.255 0 405.018V-5H554.378C590.145 127.033 540.432 144.58 509 154C453.734 170.562 253.502 95.1715 227.795 265.129Z" fill="url(#paint2_linear_864_8)"/>
</g>
<defs>
<linearGradient id="paint0_linear_864_8" x1="423.865" y1="27.3879" x2="-74.5125" y2="598.828" gradientUnits="userSpaceOnUse">
<stop offset="0.666667" stop-color="#3E1416"/>
<stop offset="1" stop-color="#780218" stop-opacity="0.96"/>
</linearGradient>
<linearGradient id="paint1_linear_864_8" x1="360.781" y1="-22" x2="-103.384" y2="468.22" gradientUnits="userSpaceOnUse">
<stop offset="0.8125" stop-color="#6E1C1E"/>
<stop offset="1" stop-color="#780218" stop-opacity="0.94"/>
</linearGradient>
<linearGradient id="paint2_linear_864_8" x1="283.634" y1="-21.9843" x2="-51.893" y2="360.675" gradientUnits="userSpaceOnUse">
<stop stop-color="#C8304C"/>
<stop offset="1" stop-color="#780218" stop-opacity="0.78"/>
</linearGradient>
<clipPath id="clip0_864_8">
<rect width="1521" height="857" fill="white"/>
</clipPath>
</defs>
</svg>
