<svg id="Layer_1" data-name="Layer 1" xmlns="http://www.w3.org/2000/svg" viewBox="0 0 239.17 283.41"><defs><style>.cls-1{fill:none;stroke:#a83e51;stroke-linecap:round;stroke-linejoin:round;stroke-width:3px;}</style></defs><title>awereness</title><path class="cls-1" d="M223.26,128.93v-9a4.14,4.14,0,0,0-4.15-4.14H207.28a4.16,4.16,0,0,1-4-3.27,50.33,50.33,0,0,0-6-14.42,4.16,4.16,0,0,1,.52-5.16l8.4-8.4a4.14,4.14,0,0,0,0-5.86l-6.37-6.38a4.16,4.16,0,0,0-5.86,0l-8.44,8.44a4.16,4.16,0,0,1-5.14.53A50.23,50.23,0,0,0,166,75.33a4.16,4.16,0,0,1-3.28-4v-12a4.14,4.14,0,0,0-4.15-4.14h-9a4.14,4.14,0,0,0-4.14,4.14v12a4.17,4.17,0,0,1-3.28,4,50.23,50.23,0,0,0-14.39,5.93,4.18,4.18,0,0,1-5.15-.53l-8.43-8.44a4.16,4.16,0,0,0-5.86,0l-6.38,6.38a4.16,4.16,0,0,0,0,5.86l8.4,8.4a4.15,4.15,0,0,1,.52,5.16,50.59,50.59,0,0,0-6,14.42,4.17,4.17,0,0,1-4,3.27H89a4.14,4.14,0,0,0-4.14,4.14v9A4.14,4.14,0,0,0,89,133.08h11.77a4.16,4.16,0,0,1,4,3.29,50.54,50.54,0,0,0,6,14.54,4.18,4.18,0,0,1-.53,5.15l-8.28,8.27a4.16,4.16,0,0,0,0,5.86l6.38,6.37a4.14,4.14,0,0,0,5.86,0l8.24-8.23a4.16,4.16,0,0,1,5.16-.53,50,50,0,0,0,14.57,6,4.17,4.17,0,0,1,3.28,4V189.5a4.14,4.14,0,0,0,4.14,4.15h9a4.15,4.15,0,0,0,4.15-4.15V177.87a4.17,4.17,0,0,1,3.27-4,49.89,49.89,0,0,0,14.58-6,4.16,4.16,0,0,1,5.16.53l8.24,8.23a4.14,4.14,0,0,0,5.86,0l6.37-6.37a4.14,4.14,0,0,0,0-5.86l-8.27-8.27a4.18,4.18,0,0,1-.53-5.15,50.24,50.24,0,0,0,6-14.54,4.17,4.17,0,0,1,4-3.29h11.76A4.15,4.15,0,0,0,223.26,128.93Z" transform="translate(-48.33 -13.3)"/><path class="cls-1" d="M49.83,295.21v-208c0-39.95,34.47-72.44,77-72.44h46.94S243.22,27.32,253.54,97,286,180.54,286,180.54H255v50.19s1.07,17.45-20,17.45H182.47l-.68,47" transform="translate(-48.33 -13.3)"/></svg>