<?xml version="1.0" encoding="utf-8"?>
<!-- Generator: Adobe Illustrator 23.0.0, SVG Export Plug-In . SVG Version: 6.00 Build 0)  -->
<svg version="1.1" id="Layer_1" xmlns="http://www.w3.org/2000/svg" xmlns:xlink="http://www.w3.org/1999/xlink" x="0px" y="0px"
	 viewBox="0 0 263 282" style="enable-background:new 0 0 263 282;" xml:space="preserve">
<style type="text/css">
	.st0{fill:none;stroke:#A83E51;stroke-width:3;stroke-linecap:round;stroke-linejoin:round;}
	.st1{fill:none;stroke:#B7A9A9;stroke-width:3;stroke-linecap:round;stroke-linejoin:round;stroke-dasharray:11.9114,11.9114;}
</style>
<g>
	<g>
		<title>awereness</title>
		<path class="st0" d="M183.9,120.3v-4.9c0-1.2-1-2.3-2.3-2.3c0,0,0,0,0,0h-6.5c-1.1,0-2-0.8-2.2-1.8c-0.7-2.8-1.8-5.4-3.3-7.9
			c-0.6-0.9-0.5-2.1,0.3-2.8l4.6-4.6c0.9-0.9,0.9-2.3,0-3.2c0,0,0,0,0,0l-3.5-3.5c-0.9-0.9-2.3-0.9-3.2,0l-4.6,4.6
			c-0.8,0.7-1.9,0.9-2.8,0.3c-2.4-1.5-5.1-2.6-7.9-3.2c-1-0.2-1.8-1.1-1.8-2.2v-6.5c0-1.2-1-2.3-2.3-2.3c0,0,0,0,0,0h-4.9
			c-1.2,0-2.3,1-2.3,2.3v6.5c0,1.1-0.8,2-1.8,2.2c-2.8,0.7-5.4,1.8-7.9,3.2c-0.9,0.6-2.1,0.4-2.8-0.3l-4.6-4.6
			c-0.9-0.9-2.3-0.9-3.2,0l-3.5,3.5c-0.9,0.9-0.9,2.3,0,3.2l4.6,4.6c0.7,0.8,0.9,1.9,0.3,2.8c-1.5,2.4-2.6,5.1-3.3,7.9
			c-0.2,1-1.1,1.8-2.2,1.8h-6.5c-1.2,0-2.3,1-2.3,2.3v4.9c0,1.2,1,2.3,2.2,2.3c0,0,0,0,0,0h6.4c1.1,0,2,0.8,2.2,1.8
			c0.7,2.8,1.8,5.5,3.3,7.9c0.6,0.9,0.4,2.1-0.3,2.8l-4.5,4.5c-0.9,0.9-0.9,2.3,0,3.2l3.5,3.5c0.9,0.9,2.3,0.9,3.2,0c0,0,0,0,0,0
			l4.5-4.5c0.8-0.7,1.9-0.9,2.8-0.3c2.5,1.5,5.1,2.6,8,3.3c1,0.2,1.8,1.1,1.8,2.2v6.4c0,1.2,1,2.3,2.3,2.3c0,0,0,0,0,0h4.9
			c1.3,0,2.3-1,2.3-2.3V147c0-1.1,0.8-2,1.8-2.2c2.8-0.7,5.5-1.8,8-3.3c0.9-0.6,2.1-0.5,2.8,0.3l4.5,4.5c0.9,0.9,2.3,0.9,3.2,0
			c0,0,0,0,0,0l3.5-3.5c0.9-0.9,0.9-2.3,0-3.2c0,0,0,0,0,0l-4.5-4.5c-0.7-0.8-0.9-1.9-0.3-2.8c1.5-2.5,2.6-5.1,3.3-7.9
			c0.2-1,1.1-1.8,2.2-1.8h6.4C182.9,122.6,183.9,121.6,183.9,120.3C183.9,120.3,183.9,120.3,183.9,120.3z"/>
		<path class="st0" d="M81.7,211.1V97.6c0-21.8,18.8-39.5,42-39.5h25.6c0,0,37.9,6.8,43.5,44.9c5.6,38,17.7,45.6,17.7,45.6h-16.9
			v27.4c0,0,0.6,9.5-10.9,9.5h-28.7l-0.4,25.6"/>
	</g>
	<g>
		<circle class="st1" cx="135" cy="141" r="117.5"/>
	</g>
</g>
</svg>
