<svg id="Layer_1" data-name="Layer 1" xmlns="http://www.w3.org/2000/svg" viewBox="0 0 300 238.5"><defs><style>.cls-1{fill:none;stroke:#a83e51;stroke-linecap:round;stroke-linejoin:round;stroke-width:3px;}</style></defs><title>costumers</title><path class="cls-1" d="M232.56,231.34a12.12,12.12,0,0,1-16.9,0,11.9,11.9,0,1,1-16.83,16.82A11.9,11.9,0,1,1,182,265l-12.66-12.58a11.93,11.93,0,0,1-16.9,16.83L138.17,255l2.49-2.56a11.93,11.93,0,0,0-16.83-16.9L135.39,224a11.93,11.93,0,1,0-16.9-16.83,11.94,11.94,0,0,0,0-16.91,11.62,11.62,0,0,0-8.42-3.44,11.84,11.84,0,0,0-8.41,3.44L87.54,204.34l14-14.13a11.9,11.9,0,1,0-16.83-16.83L70.71,187.51,43.56,160.36l78.15-78.15,27.07,27.08v.07l-15.95,16a35.63,35.63,0,0,0,0,50.49,13.6,13.6,0,0,0,19.17,0l20.93-20.93,4.31,4.32,45.95,45.88v.07l9.37,9.29A12.07,12.07,0,0,1,232.56,231.34Z" transform="translate(-5 -35.75)"/><path class="cls-1" d="M130,74,43.2,160.73a10.17,10.17,0,0,1-14.35,0L9.46,141.41a10.25,10.25,0,0,1,0-14.42L96.24,40.21a10.25,10.25,0,0,1,14.42,0L130,59.6A10,10,0,0,1,130,74Z" transform="translate(-5 -35.75)"/><line class="cls-1" x1="164.34" y1="216.66" x2="151.68" y2="204"/><line class="cls-1" x1="193.83" y1="212.41" x2="168.51" y2="187.1"/><line class="cls-1" x1="210.66" y1="195.59" x2="185.41" y2="170.27"/><path class="cls-1" d="M300.54,141.41l-19.39,19.32a10.17,10.17,0,0,1-14.35,0L180,74a10,10,0,0,1,0-14.35l19.32-19.39a10.25,10.25,0,0,1,14.42,0L300.54,127A10.25,10.25,0,0,1,300.54,141.41Z" transform="translate(-5 -35.75)"/><path class="cls-1" d="M266.51,160.43l-43.32,44.64-45.95-45.88-4.31-4.32L152,175.8a13.6,13.6,0,0,1-19.17,0,35.63,35.63,0,0,1,0-50.49l22.61-22.61C167.51,90.63,184.05,86.24,196.05,90Z" transform="translate(-5 -35.75)"/><path class="cls-1" d="M140.66,252.41,138.17,255l-14.34,14.27a11.93,11.93,0,0,1-16.9-16.83l14.34-14.34,2.56-2.56a11.93,11.93,0,1,1,16.83,16.9Z" transform="translate(-5 -35.75)"/><path class="cls-1" d="M135.39,224l-11.56,11.56-2.56,2.56-14.34,14.34a11.62,11.62,0,0,1-8.42,3.44,11.89,11.89,0,0,1-8.41-20.34l14.34-14.27,14-14.12A11.93,11.93,0,1,1,135.39,224Z" transform="translate(-5 -35.75)"/><path class="cls-1" d="M118.49,207.12l-14,14.12L90.1,235.51A11.94,11.94,0,0,1,81.68,239a11.68,11.68,0,0,1-8.41-3.51,11.84,11.84,0,0,1,0-16.83l14.27-14.34,14.12-14.13a11.84,11.84,0,0,1,8.41-3.44,11.62,11.62,0,0,1,8.42,3.44A11.94,11.94,0,0,1,118.49,207.12Z" transform="translate(-5 -35.75)"/><path class="cls-1" d="M101.59,190.21l-14,14.13L73.2,218.6a11.92,11.92,0,0,1-8.42,3.52,11.94,11.94,0,0,1-8.41-20.35l14.34-14.26,14.05-14.13a11.9,11.9,0,0,1,16.83,16.83Z" transform="translate(-5 -35.75)"/></svg>