<?xml version="1.0" encoding="utf-8"?>
<!-- Generator: Adobe Illustrator 23.0.0, SVG Export Plug-In . SVG Version: 6.00 Build 0)  -->
<svg version="1.1" id="Layer_1" xmlns="http://www.w3.org/2000/svg" xmlns:xlink="http://www.w3.org/1999/xlink" x="0px" y="0px"
	 viewBox="0 0 263 282" style="enable-background:new 0 0 263 282;" xml:space="preserve">
<style type="text/css">
	.st0{fill:none;stroke:#A83E51;stroke-width:3;stroke-linecap:round;stroke-linejoin:round;}
	.st1{fill:none;stroke:#B7A9A9;stroke-width:3;stroke-linecap:round;stroke-linejoin:round;stroke-dasharray:11.9114,11.9114;}
</style>
<title>costumers</title>
<g>
	<g>
		<path class="st0" d="M174,183c-2.6,2.5-6.8,2.5-9.4,0c2.6,2.5,2.7,6.7,0.2,9.4s-6.7,2.7-9.4,0.2c-0.1-0.1-0.1-0.1-0.2-0.2
			c2.6,2.6,2.6,6.8,0,9.4c-2.6,2.6-6.8,2.6-9.4,0l-7-7c2.5,2.7,2.4,6.9-0.3,9.4c-2.6,2.4-6.6,2.4-9.1,0l-7.9-7.9l1.4-1.4
			c2.5-2.7,2.4-6.9-0.2-9.4c-2.6-2.4-6.6-2.4-9.1,0l6.4-6.4c2.7-2.5,2.8-6.7,0.2-9.4c-2.5-2.7-6.7-2.8-9.4-0.2
			c-0.1,0.1-0.2,0.2-0.3,0.3c2.6-2.6,2.6-6.8,0-9.4c0,0,0,0,0,0c-1.2-1.2-2.9-1.9-4.7-1.9c-1.8,0-3.4,0.7-4.7,1.9l-7.8,7.8l7.8-7.9
			c2.6-2.6,2.6-6.8,0-9.4c-2.6-2.6-6.8-2.6-9.4,0l-7.8,7.9L69,143.6l43.4-43.4l15,15v0l-8.9,8.9c-7.7,7.7-7.8,20.3-0.1,28
			c0,0,0,0,0.1,0.1c2.9,2.9,7.7,2.9,10.7,0l11.6-11.6l2.4,2.4l25.5,25.5v0l5.2,5.2c2.7,2.5,3.1,6.5,0.6,9.2
			C174.5,183,174.4,183.2,174,183z"/>
		<path class="st0" d="M117,95.6l-48.2,48.2c-2.2,2.2-5.8,2.2-8,0L50,133c-2.2-2.2-2.2-5.8,0-8l48.2-48.2c2.2-2.2,5.8-2.2,8,0
			L117,87.6c2.2,2.1,2.3,5.6,0.1,7.9C117.1,95.5,117.1,95.5,117,95.6z"/>
		<line class="st0" x1="138.9" y1="194.7" x2="131.9" y2="187.7"/>
		<line class="st0" x1="155.3" y1="192.4" x2="141.2" y2="178.3"/>
		<line class="st0" x1="164.6" y1="183" x2="150.6" y2="169"/>
		<path class="st0" d="M211.8,133L201,143.8c-2.2,2.2-5.8,2.2-8,0l-48.2-48.2c-2.2-2.1-2.3-5.7-0.1-7.9c0,0,0.1-0.1,0.1-0.1
			l10.7-10.8c2.2-2.2,5.8-2.2,8,0l48.2,48.2C214,127.3,214,130.8,211.8,133z"/>
		<path class="st0" d="M192.9,143.6l-24.1,24.8l-25.5-25.5l-2.4-2.4l-11.6,11.6c-2.9,2.9-7.7,2.9-10.7,0c-7.7-7.7-7.8-20.3-0.1-28
			c0,0,0,0,0.1-0.1l12.6-12.6c6.7-6.7,15.9-9.1,22.6-7.1L192.9,143.6z"/>
		<path class="st0" d="M122.9,194.7l-1.4,1.4l-8,7.9c-2.7,2.5-6.9,2.4-9.4-0.2c-2.4-2.6-2.4-6.6,0-9.1l8-8l1.4-1.4
			c2.5-2.7,6.7-2.8,9.4-0.2c2.7,2.5,2.8,6.7,0.2,9.4C123.1,194.6,123,194.7,122.9,194.7L122.9,194.7z"/>
		<path class="st0" d="M120,178.9l-6.4,6.4l-1.4,1.4l-8,8c-1.2,1.2-2.9,1.9-4.7,1.9c-3.6,0-6.6-2.9-6.6-6.6c0-1.8,0.7-3.5,2-4.7
			l8-7.9l7.8-7.8c2.6-2.6,6.8-2.6,9.4,0C122.6,172.1,122.6,176.3,120,178.9z"/>
		<path class="st0" d="M110.6,169.6l-7.8,7.8l-8,7.9c-1.2,1.2-2.9,1.9-4.7,1.9c-1.8,0-3.4-0.7-4.7-2c-2.6-2.6-2.6-6.7,0-9.3
			c0,0,0,0,0,0l7.9-8l7.8-7.9c1.2-1.2,2.9-1.9,4.7-1.9c1.8,0,3.4,0.7,4.7,1.9C112.6,162.6,111.9,166.6,110.6,169.6z"/>
		<path class="st0" d="M101.2,160.2l-7.8,7.9l-8,7.9c-1.2,1.2-2.9,2-4.7,2c-3.7,0-6.6-3-6.6-6.7c0-1.7,0.7-3.4,1.9-4.6l8-7.9
			l7.8-7.9c2.6-2.6,6.8-2.6,9.4,0C103.8,153.4,103.8,157.6,101.2,160.2z"/>
	</g>
	<g>
		<circle class="st1" cx="131.5" cy="141" r="117.5"/>
	</g>
</g>
</svg>
