<?xml version="1.0" encoding="UTF-8"?><svg id="badges" xmlns="http://www.w3.org/2000/svg" viewBox="0 0 153.43 51.94"><defs><style>.cls-1{fill:#2e2c2f;}</style></defs><path class="cls-1" d="m147.2,1.46c2.63,0,4.77,2.14,4.77,4.77v39.47c0,2.63-2.14,4.77-4.77,4.77H6.23c-2.63,0-4.77-2.14-4.77-4.77V6.23C1.46,3.6,3.6,1.46,6.23,1.46h140.96m0-1.46H6.23C2.79,0,0,2.79,0,6.23v39.47c0,3.44,2.79,6.23,6.23,6.23h140.96c3.44,0,6.23-2.79,6.23-6.23V6.23c0-3.44-2.79-6.23-6.23-6.23h0Z"/><path class="cls-1" d="m25.32,16.3c-.21-1.67.62-3.45,1.55-4.54,1.05-1.24,2.88-2.18,4.33-2.24.19,1.75-.5,3.46-1.51,4.72-1.05,1.24-2.73,2.19-4.37,2.07Z"/><path class="cls-1" d="m37.33,31.1c-.02.1-.6,2.13-2.05,4.18-1.22,1.81-2.47,3.57-4.49,3.6-1.95.04-2.61-1.15-4.85-1.15s-2.96,1.12-4.83,1.19c-1.92.07-3.37-1.93-4.63-3.72-2.5-3.66-4.45-10.3-1.84-14.82,1.26-2.22,3.57-3.65,6.04-3.69,1.91-.03,3.7,1.3,4.87,1.3s3.35-1.6,5.62-1.36c.95.03,3.65.38,5.39,2.92-.14.08-3.21,1.89-3.18,5.61.04,4.45,3.9,5.92,3.95,5.94Z"/><path class="cls-1" d="m54.17,23.32h-3.05l-4.93,15.34h2.55l1.36-4.51h4.99l1.43,4.51h2.62l-4.95-15.34Zm-3.65,8.94l1.28-4c.33-1.27.57-2.23.73-2.89h.05c.37,1.52.63,2.47.77,2.89l1.3,4h-4.12Z"/><path class="cls-1" d="m70.48,28.92c-.87-1.03-1.95-1.55-3.26-1.55-1.66,0-2.91.66-3.73,1.98h-.04l-.14-1.76h-2.16c.06,1.25.09,2.45.09,3.64v11.92h2.46v-5.81c.64,1.05,1.69,1.57,3.16,1.57,1.35,0,2.49-.48,3.41-1.45,1.03-1.09,1.54-2.58,1.54-4.46,0-1.69-.44-3.04-1.33-4.08Zm-1.95,6.99c-.52.71-1.24,1.07-2.16,1.07-.79,0-1.43-.28-1.92-.83-.49-.55-.74-1.24-.74-2.04v-1.85c0-.2.04-.45.11-.75.14-.66.48-1.17.97-1.58.5-.39,1.05-.6,1.65-.6.89,0,1.61.36,2.14,1.09.49.7.73,1.58.73,2.66,0,1.17-.26,2.11-.78,2.83Z"/><path class="cls-1" d="m83.19,28.92c-.87-1.03-1.95-1.55-3.26-1.55-1.66,0-2.91.66-3.73,1.98h-.04l-.14-1.76h-2.16c.06,1.25.09,2.45.09,3.64v11.92h2.46v-5.81c.64,1.05,1.69,1.57,3.16,1.57,1.35,0,2.49-.48,3.41-1.45,1.03-1.09,1.54-2.58,1.54-4.46,0-1.69-.44-3.04-1.33-4.08Zm-1.95,6.99c-.51.71-1.24,1.07-2.16,1.07-.79,0-1.43-.28-1.92-.83-.49-.55-.74-1.24-.74-2.04v-1.85c0-.2.04-.45.11-.75.16-.66.48-1.17.97-1.58.5-.39,1.05-.6,1.65-.6.89,0,1.61.36,2.14,1.09.49.7.73,1.58.73,2.66,0,1.17-.25,2.11-.78,2.83Z"/><path class="cls-1" d="m97.81,31.7c.63.72.94,1.61.94,2.67,0,1.31-.46,2.37-1.36,3.19-1,.89-2.39,1.34-4.18,1.34-1.65,0-2.97-.32-3.97-.96l.57-2.05c1.08.63,2.26.96,3.55.96.92,0,1.65-.21,2.16-.62.52-.42.78-.98.78-1.67,0-.62-.22-1.14-.63-1.57-.43-.43-1.13-.82-2.12-1.18-2.71-1.01-4.05-2.47-4.05-4.39,0-1.26.48-2.29,1.42-3.1.95-.8,2.2-1.21,3.77-1.21,1.39,0,2.56.24,3.48.73l-.62,1.99c-.87-.47-1.85-.71-2.95-.71-.86,0-1.55.22-2.04.63-.41.38-.61.84-.61,1.39,0,.6.24,1.11.71,1.5.4.36,1.15.76,2.23,1.18,1.32.53,2.29,1.15,2.91,1.87Z"/><path class="cls-1" d="m104.18,27.6h2.71v1.85h-2.71v5.37c0,1.36.48,2.05,1.43,2.05.44,0,.8-.04,1.09-.11l.07,1.87c-.49.18-1.12.27-1.91.27-.98,0-1.72-.3-2.28-.89-.55-.59-.82-1.59-.82-2.98v-5.58h-1.61v-1.84h1.61v-2.03l2.41-.73v2.75Z"/><path class="cls-1" d="m117.68,29c-.99-1.08-2.3-1.62-3.92-1.62s-3.02.55-4.02,1.64c-.99,1.09-1.49,2.49-1.49,4.21s.48,3,1.44,4.07c.97,1.07,2.26,1.61,3.89,1.61s3.03-.56,4.05-1.68c.97-1.09,1.45-2.48,1.45-4.19s-.47-3-1.41-4.04Zm-1.81,6.73c-.54.89-1.28,1.34-2.21,1.34s-1.7-.44-2.23-1.32c-.44-.72-.65-1.59-.65-2.61s.21-1.93.65-2.66c.51-.88,1.27-1.32,2.25-1.32s1.69.44,2.21,1.32c.44.73.65,1.59.65,2.61s-.23,1.89-.67,2.64Z"/><path class="cls-1" d="m127.08,27.42v2.35c-.23-.04-.49-.06-.77-.06-.86,0-1.54.32-2.01.98-.4.57-.61,1.31-.61,2.18v5.81h-2.46v-7.58c0-1.28-.02-2.44-.07-3.48h2.14l.09,2.12h.07c.26-.73.66-1.32,1.22-1.76.55-.39,1.14-.59,1.78-.59.23,0,.44.02.61.04Z"/><path class="cls-1" d="m138.08,32.61c0-1.38-.33-2.53-.99-3.49-.81-1.18-2.03-1.78-3.62-1.78s-2.91.59-3.86,1.78c-.91,1.11-1.37,2.5-1.37,4.17s.49,3.05,1.46,4.06c.98,1.01,2.33,1.52,4.04,1.52,1.42,0,2.66-.23,3.71-.69l-.38-1.7c-.89.34-1.89.52-2.98.52-.99,0-1.79-.26-2.41-.77-.69-.57-1.04-1.41-1.07-2.5h7.38c.06-.3.09-.67.09-1.11Zm-7.46-.64c.07-.74.32-1.38.73-1.91.5-.66,1.15-1,1.95-1,.87,0,1.53.34,1.95,1.03.33.53.5,1.16.48,1.89h-5.11Z"/><path class="cls-1" d="m51.54,10.37c2.55,0,4.06,1.57,4.06,4.27s-1.5,4.3-4.06,4.3h-3.02v-8.57h3.02Zm-1.69,7.42h1.57c1.82,0,2.82-1.11,2.82-3.14s-1.01-3.14-2.82-3.14h-1.57v6.27Z"/><path class="cls-1" d="m56.42,15.81c0-2.01,1.18-3.24,2.96-3.24s2.96,1.23,2.96,3.24-1.18,3.24-2.96,3.24-2.96-1.23-2.96-3.24Zm4.62,0c0-1.38-.65-2.18-1.66-2.18s-1.66.8-1.66,2.18.65,2.19,1.66,2.19,1.66-.8,1.66-2.19Z"/><path class="cls-1" d="m69.85,18.94h-1.34l-1.31-4.68h-.03l-1.3,4.68h-1.32l-1.72-6.25h1.28l1.14,4.92h.02l1.3-4.92h1.24l1.31,4.92h.03l1.14-4.92h1.27l-1.71,6.25Z"/><path class="cls-1" d="m72.34,12.69h1.22v1.05h.03c.34-.71,1-1.15,1.97-1.15,1.38,0,2.17.88,2.17,2.31v4.04h-1.29v-3.79c0-.94-.44-1.45-1.33-1.45s-1.48.64-1.48,1.61v3.64h-1.28v-6.25Z"/><path class="cls-1" d="m79.01,10.37h1.28v8.57h-1.28v-8.57Z"/><path class="cls-1" d="m81.34,15.81c0-2.01,1.18-3.24,2.96-3.24s2.96,1.23,2.96,3.24-1.18,3.24-2.96,3.24-2.96-1.23-2.96-3.24Zm4.62,0c0-1.38-.65-2.18-1.66-2.18s-1.66.8-1.66,2.18.65,2.19,1.66,2.19,1.66-.8,1.66-2.19Z"/><path class="cls-1" d="m88,17.16c0-1.09.84-1.76,2.32-1.85l1.71-.1v-.48c0-.69-.47-1.11-1.25-1.11-.74,0-1.21.36-1.32.91h-1.21c.07-1.13,1.03-1.96,2.58-1.96s2.48.8,2.48,2.05v4.31h-1.23v-1.03h-.03c-.36.69-1.15,1.13-1.97,1.13-1.22,0-2.08-.76-2.08-1.88Zm4.03-.56v-.49l-1.54.1c-.77.05-1.2.39-1.2.93s.45.9,1.14.9c.9,0,1.6-.62,1.6-1.43Z"/><path class="cls-1" d="m94.28,15.81c0-1.97,1.05-3.22,2.61-3.22.9,0,1.61.45,1.96,1.14h.02v-3.36h1.29v8.57h-1.25v-1.06h-.02c-.37.71-1.08,1.17-1.99,1.17-1.58,0-2.62-1.26-2.62-3.23Zm1.31,0c0,1.32.64,2.14,1.65,2.14s1.64-.84,1.64-2.14-.66-2.14-1.64-2.14-1.65.83-1.65,2.14Z"/><path class="cls-1" d="m103.66,15.81c0-2.01,1.18-3.24,2.96-3.24s2.96,1.23,2.96,3.24-1.18,3.24-2.96,3.24-2.96-1.23-2.96-3.24Zm4.62,0c0-1.38-.65-2.18-1.66-2.18s-1.66.8-1.66,2.18.65,2.19,1.66,2.19,1.66-.8,1.66-2.19Z"/><path class="cls-1" d="m110.58,12.69h1.22v1.05h.03c.34-.71,1-1.15,1.97-1.15,1.38,0,2.17.88,2.17,2.31v4.04h-1.29v-3.79c0-.94-.44-1.45-1.33-1.45s-1.48.64-1.48,1.61v3.64h-1.28v-6.25Z"/><path class="cls-1" d="m121.33,11.21v1.48h1.19v1.02h-1.19v3.44c0,.54.24.78.76.78.13,0,.34-.01.42-.03v1.02c-.14.04-.43.06-.71.06-1.26,0-1.76-.48-1.76-1.69v-3.59h-.91v-1.02h.91v-1.48h1.29Z"/><path class="cls-1" d="m123.61,10.37h1.27v3.37h.03c.34-.73,1.03-1.15,1.98-1.15,1.37,0,2.19.91,2.19,2.33v4.03h-1.29v-3.78c0-.92-.46-1.47-1.37-1.47-.95,0-1.53.65-1.53,1.64v3.61h-1.28v-8.57Z"/><path class="cls-1" d="m135.67,17.1c-.18,1.14-1.26,1.95-2.69,1.95-1.84,0-2.95-1.24-2.95-3.21s1.13-3.27,2.89-3.27,2.81,1.22,2.81,3.12v.44h-4.41v.08c0,1.09.65,1.81,1.68,1.81.73,0,1.27-.37,1.44-.91h1.22Zm-4.34-1.86h3.12c-.03-.96-.64-1.63-1.53-1.63s-1.53.68-1.59,1.63Z"/></svg>