<?xml version="1.0" encoding="UTF-8"?><svg id="badges" xmlns="http://www.w3.org/2000/svg" viewBox="0 0 153.43 51.94"><defs><style>.cls-1{fill:#fbbc04;}.cls-2{fill:#ea4335;}.cls-3{fill:#4285f4;}.cls-4{fill:#34a853;}.cls-5{fill:#2e2c2f;}</style></defs><path class="cls-5" d="m147.2,1.46c2.63,0,4.77,2.14,4.77,4.77v39.47c0,2.63-2.14,4.77-4.77,4.77H6.23c-2.63,0-4.77-2.14-4.77-4.77V6.23C1.46,3.6,3.6,1.46,6.23,1.46h140.96M147.2,0H6.23C2.79,0,0,2.79,0,6.23v39.47c0,3.44,2.79,6.23,6.23,6.23h140.96c3.44,0,6.23-2.79,6.23-6.23V6.23C153.43,2.79,150.64,0,147.2,0h0Z"/><path class="cls-5" d="m139.15,29.37l-2.29,5.83h-.07l-2.39-5.83h-2.16l3.58,8.14-2.04,4.53h2.1l5.51-12.67h-2.24Zm-16.17-4.83h-2v13.44h2v-13.44Zm-7.52,0h-4.8v13.44h2.01v-5.09h2.8c2.35.08,4.33-1.76,4.41-4.11,0-.02,0-.04,0-.06-.05-2.36-2-4.23-4.36-4.18-.02,0-.04,0-.06,0Zm.05,6.47h-2.84v-4.58h2.85c1.26,0,2.29,1.02,2.29,2.29s-1.02,2.29-2.29,2.29h0Zm12.39-1.93c-1.5-.09-2.9.72-3.58,2.06l1.78.76c.36-.66,1.08-1.04,1.83-.98,1.06-.11,2,.66,2.1,1.72,0,0,0,0,0,.01v.14c-.64-.35-1.35-.53-2.08-.53-1.91,0-3.87,1.05-3.87,3.05,0,1.8,1.56,2.96,3.33,2.96,1.03.07,2-.44,2.55-1.31h.08v1.04h1.95v-5.17c0-2.39-1.78-3.71-4.09-3.71l-.02-.04Zm-.24,7.37c-.66,0-1.57-.34-1.57-1.14,0-1.04,1.14-1.43,2.13-1.43.64-.02,1.27.14,1.83.45-.15,1.21-1.17,2.11-2.39,2.13h0Zm-72.31,1.82c-3.95.01-7.17-3.15-7.24-7.1.06-3.95,3.29-7.11,7.24-7.1,1.83-.03,3.59.68,4.89,1.96l-1.38,1.37c-.94-.92-2.2-1.43-3.51-1.42-2.85,0-5.16,2.31-5.16,5.16s2.31,5.16,5.16,5.16c1.35.06,2.66-.46,3.6-1.43.62-.67.99-1.53,1.06-2.44h-4.66v-1.88h6.56c.07.4.1.81.1,1.21.07,1.69-.54,3.33-1.69,4.58-1.31,1.32-3.12,2.02-4.97,1.93Zm16.8-4.58c.1,2.5-1.84,4.61-4.34,4.71-2.5.1-4.61-1.84-4.71-4.34,0-.12,0-.25,0-.37-.1-2.5,1.84-4.61,4.34-4.71,2.5-.1,4.61,1.84,4.71,4.34,0,.12,0,.25,0,.37Zm-1.98,0c.13-1.4-.9-2.65-2.3-2.78-1.4-.13-2.65.9-2.78,2.3-.02.16-.02.32,0,.48-.13,1.4.9,2.65,2.3,2.78,1.4.13,2.65-.9,2.78-2.3.02-.16.02-.32,0-.48Zm12.13,0c0,2.5-2.02,4.52-4.52,4.52s-4.52-2.02-4.52-4.52,2.02-4.52,4.52-4.52,4.52,2.02,4.52,4.52Zm-1.98,0c.13-1.4-.9-2.65-2.3-2.78-1.4-.13-2.65.9-2.78,2.3-.02.16-.02.32,0,.48-.13,1.4.9,2.65,2.3,2.78,1.4.13,2.65-.9,2.78-2.3.02-.16.02-.32,0-.48Zm11.87-4.29v8.21c0,3.37-2.01,4.76-4.37,4.76-1.77.01-3.38-1.04-4.07-2.67l1.73-.76c.37.95,1.27,1.59,2.29,1.62,1.53,0,2.46-.94,2.46-2.68v-.66h-.08c-.61.68-1.47,1.06-2.38,1.04-2.53,0-4.58-2.05-4.58-4.58s2.05-4.58,4.58-4.58c.91-.02,1.79.35,2.41,1.02h.08v-.76h1.94v.02Zm-1.78,4.32c.12-1.42-.94-2.67-2.37-2.79-.03,0-.05,0-.08,0-1.46.05-2.61,1.28-2.56,2.74,0,.02,0,.03,0,.05-.07,1.45,1.05,2.68,2.51,2.75.02,0,.04,0,.06,0,1.41-.05,2.51-1.24,2.45-2.65,0-.03,0-.07,0-.1Zm5.31-9.16v13.43h-2.01v-13.43h2.01Zm7.93,10.65l1.57,1.04c-.85,1.27-2.28,2.03-3.81,2.03-2.45.04-4.46-1.92-4.49-4.37,0-.07,0-.14,0-.21-.2-2.32,1.51-4.36,3.83-4.56,1.95-.17,3.76,1.03,4.37,2.89l.21.53-6.1,2.52c.39.87,1.27,1.42,2.23,1.39.9-.01,1.74-.49,2.2-1.27Zm-4.81-1.65l4.1-1.69c-.32-.64-1-1.02-1.71-.97-1.38.06-2.46,1.23-2.4,2.62,0,.02,0,.03,0,.05Z"/><path class="cls-2" d="m25.14,25.28l-12.99,13.61c.53,1.87,2.47,2.96,4.35,2.43.28-.08.56-.2.81-.34l14.61-8.32-6.78-7.38Z"/><path class="cls-1" d="m38.28,22.96l-6.32-3.62-7.11,6.24,7.14,7.05,6.27-3.58c1.68-.88,2.33-2.96,1.45-4.64-.32-.62-.83-1.13-1.45-1.45h.02Z"/><path class="cls-3" d="m12.15,13.06c-.08.29-.12.59-.12.89v24.04c0,.3.04.6.12.89l13.43-13.26-13.43-12.56Z"/><path class="cls-4" d="m25.24,25.97l6.72-6.63-14.6-8.36c-.55-.32-1.17-.49-1.81-.49-1.58,0-2.97,1.05-3.4,2.56l13.09,12.92Z"/><path class="cls-5" d="m51.52,19.47c-2.07,0-3.39-1.51-3.39-3.87s1.32-3.79,3.39-3.79c1.6,0,2.82.95,3.1,2.42h-.97c-.31-1-1.08-1.57-2.13-1.57-1.53,0-2.44,1.1-2.44,2.93s.93,3.02,2.44,3.02c1.31,0,2.22-.85,2.22-2.1v-.13h-2.09v-.81h3.01v.7c0,2-1.17,3.19-3.14,3.19Z"/><path class="cls-5" d="m60.43,19.34h-4.59v-7.41h4.59v.83h-3.67v2.38h3.48v.82h-3.48v2.55h3.67v.83Z"/><path class="cls-5" d="m63.52,19.34v-6.58h-2.34v-.83h5.6v.83h-2.34v6.58h-.92Z"/><path class="cls-5" d="m69.92,19.34v-7.41h.92v7.41h-.92Z"/><path class="cls-5" d="m72.28,19.34v-7.41h.9l4.06,5.82h.05v-5.82h.91v7.41h-.9l-4.06-5.8h-.05v5.8h-.91Z"/><path class="cls-5" d="m88.33,15.64c0,2.35-1.31,3.83-3.41,3.83s-3.41-1.47-3.41-3.83,1.31-3.83,3.41-3.83,3.41,1.48,3.41,3.83Zm-5.88,0c0,1.82.95,2.97,2.46,2.97s2.46-1.15,2.46-2.97-.95-2.98-2.46-2.98-2.46,1.15-2.46,2.98Z"/><path class="cls-5" d="m89.48,19.34v-7.41h.9l4.06,5.82h.05v-5.82h.91v7.41h-.9l-4.06-5.8h-.05v5.8h-.91Z"/></svg>