<?xml version="1.0" encoding="utf-8"?>
<!-- Generator: Adobe Illustrator 23.0.0, SVG Export Plug-In . SVG Version: 6.00 Build 0)  -->
<svg version="1.1" id="Layer_1" xmlns="http://www.w3.org/2000/svg" xmlns:xlink="http://www.w3.org/1999/xlink" x="0px" y="0px"
	 viewBox="0 0 235 235" style="enable-background:new 0 0 235 235;" xml:space="preserve">
<style type="text/css">
	.st0{opacity:0.4;fill:#BA4A62;stroke:#FFFFFF;stroke-width:5.000000e-02;stroke-miterlimit:10;enable-background:new    ;}
	.st1{fill:#FFFFFF;}
	.st2{fill:none;stroke:#FFFFFF;stroke-width:0.25;stroke-miterlimit:10;}
	.st3{fill:none;stroke:#FFFFFF;stroke-miterlimit:10;}
	.st4{fill:none;stroke:#FFFFFF;stroke-width:3;stroke-linecap:round;stroke-miterlimit:10;}
</style>
<title>icon_3</title>
<path class="st0" d="M98.6,83.1c-0.4,2.3-1.5,4.5-3,6.3c-2.2,2.4-5.3,3.6-9.2,3.6h-0.3c-3.9,0-7-1.3-9.2-3.7
	c-2.5-3.1-3.7-7-3.3-10.9c0.3-2,0.7-3.9,1.1-5.8l0.1-0.4c7.1-1.4,11,8.6,16,11s7.6,0,7.6,0L98.6,83.1z"/>
<path class="st1" d="M85.6,94.7c0-0.3-0.3-0.6-0.6-0.7c-3.4-0.1-6.5-1.6-8.8-4.1c-2.7-3.3-4-7.6-3.6-11.9c0.6-4.9,3.9-15.9,4-16.4
	l0,0c0.1-0.3,0.3-0.5,0.6-0.5h10h8.5c0.3,0,0.5,0.2,0.6,0.5l0,0c0.1,0.5,3.4,11.5,3.9,16.4c0.5,4.3-0.8,8.6-3.6,11.9
	c-2.3,2.5-5.5,3.9-8.8,4c-0.3,0-0.6,0.3-0.6,0.7v11.8c0,0.4,0.3,0.7,0.7,0.7l0,0h9.7c0.4,0,0.7,0.3,0.7,0.7l0,0
	c0,0.4-0.3,0.7-0.7,0.7l0,0H86.9h-1H75.2c-0.4,0-0.7-0.3-0.7-0.7l0,0l0,0c0-0.4,0.3-0.6,0.6-0.7c0,0,0,0,0,0h9.7
	c0.4,0,0.7-0.3,0.7-0.7L85.6,94.7z M86.3,92.8h0.3c3.9,0,7-1.2,9.2-3.6c1.5-1.8,2.6-4,3-6.4c0.3-1.5,0.4-3,0.3-4.5
	c-0.4-4-2.8-12.4-3.6-15.3c-0.1-0.3-0.3-0.5-0.6-0.5h-7.6h-1h-8c-0.3,0-0.5,0.2-0.6,0.5c-0.8,2.8-3.2,11.3-3.7,15.2
	c-0.4,3.9,0.7,7.8,3.2,10.9C79.3,91.5,82.4,92.8,86.3,92.8z"/>
<path class="st2" d="M99.2,82.6c0,0-3.2,2.6-8.2,0.3s-9.7-12.5-16.7-11"/>
<path class="st3" d="M109.7,142.9"/>
<path class="st1" d="M165.4,130.8c8.6,0,15.5-6.9,15.6-15.4V59.5c-0.1-8.6-7.1-15.4-15.6-15.4H67.6c-8.6,0-15.5,6.9-15.6,15.4v55.8
	c0.1,8.6,7,15.5,15.6,15.5h24.6l14.9,8.6c1.1,0.6,2.4,0.2,3-0.8c0.2-0.3,0.3-0.7,0.3-1.1v-6.7h17.4l-0.3-2.6h-19.6v8.6l-14.9-8.6
	H67.6c-7.1,0-12.9-5.7-13-12.8V59.5c0.1-7.1,5.9-12.8,13-12.8h97.8c7.1,0,12.9,5.7,13,12.8v55.8c-0.1,7.1-5.9,12.9-13,12.8V130.8z"
	/>
<path class="st1" d="M147.5,92.1c-30.6,0-24.6,27.8-24.6,27.8c23.1,3.3,27.8-6.9,28.8-10.7c0.1-0.2,0.3-0.3,0.5-0.2
	c0.1,0,0.2,0.1,0.2,0.2c4.3,11.8,18.5,10.3,18.5,10.3C171.7,91.3,147.5,92.1,147.5,92.1z M154.8,108.3c-0.6-1.5-2.2-2.3-3.8-1.8
	c-0.9,0.3-1.6,1.1-1.8,2c-0.7,2.8-3.9,9.4-17.9,9.4l0,0c-2.1,0-4.1-0.1-6.2-0.4c-0.4-3.3-0.5-10.7,3.8-16.1
	c3.7-4.5,9.9-6.8,18.5-6.8h0.2c0.9,0,9.1,0.2,14.7,6c3.7,3.8,5.7,9.3,5.9,16.3C164.5,116.8,157.4,115.5,154.8,108.3L154.8,108.3z"/>
<path class="st1" d="M126.6,120.3"/>
<path class="st1" d="M125.8,118.7v5.8c0,12.1,9.4,22,21,22s21-9.8,21-22v-5.8h-2.4v2.4l-0.2,3.4c0,10.7-8.3,19.4-18.4,19.4
	s-18.4-8.7-18.4-19.4v-3.3l-0.2-2.6H125.8z"/>
<path class="st1" d="M137.3,142.6v9.6c0,0,1,4.8,9,4.8c0,0,6.4,0,8.9-3.2v-12.1C155.2,141.7,148.4,147.5,137.3,142.6z M152.6,152.8
	c-1.6,1.2-4.9,1.7-6.3,1.7c-4.9,0-6.2-2-6.4-2.7v-5.5c2,0.6,4.1,0.9,6.1,0.9c2.3,0,4.5-0.4,6.6-1.2L152.6,152.8z"/>
<path class="st4" d="M112.5,190.9v-25.8c0,0,0.6-7.3,11.4-10.5s13.6-3.2,13.6-3.2"/>
<path class="st4" d="M179.8,190.1v-25.8c0,0-0.6-7.3-11.4-10.5s-13.6-3.2-13.6-3.2"/>
<path class="st1" d="M121.3,55h10.5c1.1,0,2,0.9,2,2l0,0c0,1.1-0.9,2-2,2h-10.5c-1.1,0-2-0.9-2-2l0,0C119.3,55.9,120.2,55,121.3,55z
	"/>
<path class="st1" d="M140.3,55h29c1.3,0,2.4,1.1,2.4,2.4l0,0c0,1.3-1.1,2.4-2.4,2.4h-29c-1.3,0-2.4-1.1-2.4-2.4l0,0
	C137.9,56.1,139,55,140.3,55z"/>
<path class="st1" d="M131.4,75.2h37.9c1.3,0,2.4,1.1,2.4,2.4l0,0c0,1.3-1.1,2.4-2.4,2.4h-37.9c-1.3,0-2.4-1.1-2.4-2.4l0,0
	C129,76.3,130.1,75.2,131.4,75.2z"/>
<path class="st1" d="M120.9,64.7h48.4c1.3,0,2.4,1.1,2.4,2.4l0,0c0,1.3-1.1,2.4-2.4,2.4h-48.4c-1.3,0-2.4-1.1-2.4-2.4l0,0
	C118.5,65.8,119.6,64.7,120.9,64.7z"/>
<line class="st4" x1="125.2" y1="189.7" x2="125.2" y2="174.5"/>
<line class="st4" x1="167.6" y1="189.7" x2="167.6" y2="174.5"/>
</svg>
