<?xml version="1.0" encoding="utf-8"?>
<!-- Generator: Adobe Illustrator 23.0.0, SVG Export Plug-In . SVG Version: 6.00 Build 0)  -->
<svg version="1.1" id="Layer_1" xmlns="http://www.w3.org/2000/svg" xmlns:xlink="http://www.w3.org/1999/xlink" x="0px" y="0px"
	 viewBox="0 0 235 235" style="enable-background:new 0 0 235 235;" xml:space="preserve">
<style type="text/css">
	.st0{opacity:0.4;fill:#BA4A62;enable-background:new    ;}
	.st1{fill:none;stroke:#FFFFFF;stroke-miterlimit:10;}
	.st2{fill:#FFFFFF;}
	.st3{fill:#A83E51;stroke:#FFFFFF;stroke-width:1.5;stroke-miterlimit:10;}
</style>
<title>icon_2</title>
<path class="st0" d="M96.8,80.8c0,0,0.7,2.9-5.8,0s-9.5-2.9-9.5-2.9v8.4c0,0,1.1,9.5-5.5,11.7s-8,10.2-8,17.6s0.7,72.4,0.7,72.4
	h41.7v-74.6c0,0,1.5-11-6.6-14.6S96.5,88.5,96.8,80.8z"/>
<path class="st1" d="M97.5,80.8c0,0,0.7,2.9-5.8,0s-9.5-2.9-9.5-2.9"/>
<path class="st2" d="M111.8,188.2c0-0.6-0.2-55.7,0-70.8c0.2-15.3-3.2-17.7-9.7-20.9l-0.2-0.1c-3.4-1.7-3.6-7.6-3.7-7.7v-23
	c0-0.6,0.4-1.1,1.1-1.2c0,0,0,0,0.1,0c0.6,0,1.1-0.4,1.2-1.1c0,0,0,0,0,0l0.1-4c0-0.6-0.5-1.1-1.1-1.1c0,0,0,0,0,0H79.3
	c-0.6,0-1.1,0.5-1.1,1.1c0,0,0,0,0,0l0.1,4c0,0.6,0.5,1.1,1.1,1.1c0.6,0,1.1,0.5,1.1,1.1c0,0,0,0,0,0v23c0,0.1-0.3,5.9-3.7,7.7
	l-0.2,0.1c-6.5,3.3-9.9,5.7-9.7,20.9c0.2,15.1,0,70.3,0,70.8v0.3c0,0.6,0.5,1.1,1.1,1.1h42.6c0.6,0,1.1-0.5,1.1-1.1c0,0,0,0,0,0
	L111.8,188.2z M109.4,186.5c0,0.4-0.3,0.8-0.8,0.8c0,0,0,0,0,0H70.1c-0.4,0-0.8-0.4-0.8-0.8l0,0c0-9.6,0.2-55.7,0-69.2
	c-0.2-14.5,2.9-16,8.4-18.8l0.2-0.1c4.5-2.3,4.9-8.9,4.9-9.7V65.7c0-1.3-0.7-2.5-1.9-3.1c-0.2-0.1-0.4-0.4-0.4-0.7v-0.5
	c0-0.4,0.3-0.8,0.8-0.8c0,0,0,0,0,0h16c0.4,0,0.8,0.4,0.8,0.8c0,0,0,0,0,0v0.5c0,0.3-0.2,0.5-0.4,0.7c-1.2,0.6-1.9,1.8-1.9,3.1v23.1
	c0,0.8,0.4,7.4,4.9,9.7l0.2,0.1c5.6,2.8,8.6,4.3,8.4,18.8C109.2,130.9,109.4,177,109.4,186.5z"/>
<path class="st2" d="M95.6,59.2V46.6c0-0.7-0.6-1.3-1.3-1.3c0,0,0,0,0,0h-9.9c-0.7,0-1.3,0.6-1.3,1.3c0,0,0,0,0,0v12.6h2.2V48.4
	c0-0.5,0.4-0.9,0.8-0.9h6.4c0.5,0,0.8,0.4,0.8,0.9v10.8H95.6z"/>
<path class="st1" d="M74.3,119.2h30c1.2,0,2.1,1,2.1,2.1v38.9c0,1.2-1,2.1-2.1,2.1h-30c-1.2,0-2.1-1-2.1-2.1v-38.9
	C72.2,120.1,73.2,119.2,74.3,119.2z"/>
<path class="st0" d="M138.2,80.8c0,0-0.7,2.9,5.9,0s9.5-2.9,9.5-2.9v8.4c0,0-1.1,9.5,5.5,11.7s8,10.2,8,17.6s-0.7,72.4-0.7,72.4
	h-41.6v-74.6c0,0-1.5-11,6.6-14.6S138.6,88.5,138.2,80.8z"/>
<path class="st1" d="M137.5,80.8c0,0-0.7,2.9,5.9,0s9.5-2.9,9.5-2.9"/>
<path class="st2" d="M123.2,188.5c0,0.6,0.5,1.1,1.1,1.1c0,0,0,0,0,0H167c0.6,0,1.1-0.5,1.1-1.1v-0.3c0-0.6-0.2-55.7,0-70.8
	c0.2-15.3-3.2-17.7-9.7-20.9l-0.2-0.1c-3.4-1.7-3.6-7.6-3.6-7.7v-23c0-0.6,0.5-1.1,1.1-1.1c0,0,0,0,0,0c0.6,0,1.1-0.5,1.1-1.1l0.1-4
	c0-0.6-0.5-1.1-1.1-1.1c0,0,0,0,0,0h-20.1c-0.6,0-1.1,0.5-1.1,1.2c0,0,0,0,0,0l0.1,4c0,0.6,0.5,1.1,1.1,1.1c0.6,0,1.1,0.5,1.1,1.1
	c0,0,0,0,0,0v23c0,0.1-0.3,5.9-3.6,7.7l-0.2,0.1c-6.5,3.3-9.9,5.7-9.7,20.9c0.2,15.1,0,70.3,0,70.8V188.5z M125.6,117.3
	c-0.2-14.5,2.9-16,8.4-18.8l0.2-0.1c4.6-2.3,4.9-8.9,4.9-9.7V65.7c0-1.3-0.7-2.5-1.9-3.1c-0.3-0.1-0.4-0.4-0.4-0.7v-0.5
	c0-0.4,0.3-0.8,0.8-0.8c0,0,0,0,0,0h16c0.4,0,0.8,0.4,0.8,0.8c0,0,0,0,0,0v0.5c0,0.3-0.2,0.5-0.4,0.7c-1.2,0.6-1.9,1.8-1.9,3.1v23.1
	c0,0.8,0.4,7.4,4.9,9.7l0.2,0.1c5.6,2.8,8.6,4.3,8.4,18.8c-0.2,13.5,0,59.6,0,69.2c0,0.4-0.4,0.8-0.8,0.8l0,0h-38.6
	c-0.4,0-0.8-0.4-0.8-0.8c0,0,0,0,0,0C125.6,177,125.8,130.9,125.6,117.3L125.6,117.3z"/>
<path class="st2" d="M139.4,59.2V46.6c0-0.7,0.6-1.3,1.3-1.3c0,0,0,0,0,0h9.9c0.7,0,1.3,0.6,1.3,1.3c0,0,0,0,0,0v12.6h-2.2V48.4
	c0-0.5-0.4-0.9-0.8-0.9h-6.4c-0.5,0-0.8,0.4-0.8,0.9v10.8H139.4z"/>
<path class="st1" d="M160.6,162.3h-30c-1.2,0-2.1-1-2.1-2.1v-38.9c0-1.2,1-2.1,2.1-2.1h30c1.2,0,2.1,1,2.1,2.1v38.9
	C162.8,161.4,161.8,162.3,160.6,162.3z"/>
<path class="st3" d="M106.1,143.9l-13.4,27.3c-0.1,0.1,0,0.3,0.1,0.3c0.1,0,0.1,0,0.2,0l9.4-3.7l5.1,8.2c0.1,0.1,0.2,0.1,0.3,0.1
	c0,0,0.1-0.1,0.1-0.1l9.2-27.7"/>
<path class="st3" d="M127.8,143.9l13.4,27.3c0.1,0.1,0,0.3-0.1,0.3c-0.1,0-0.1,0-0.2,0l-9.4-3.7l-5.1,8.2c-0.1,0.1-0.2,0.1-0.3,0.1
	c-0.1,0-0.1-0.1-0.1-0.1l-9.2-27.7"/>
<path class="st3" d="M139.5,133.7c0-4-2.6-7.5-6.4-8.6c-0.3-4.8-4.2-8.5-9-8.5c-0.5,0-1.1,0.1-1.6,0.2c-3.5-3.3-9-3.2-12.4,0.2
	c-0.8-0.2-1.6-0.3-2.4-0.3c-5,0-9,4-9,9c0,0.1,0,0.2,0,0.3c-2.9,1.6-4.6,4.6-4.6,7.9c0,1.4,0.3,2.8,1,4.1c-0.7,1.3-1,2.7-1,4.1
	c0,3.4,2,6.5,5,8c1.1,3.8,4.6,6.5,8.6,6.4c0.6,0,1.3-0.1,1.9-0.2c3.2,3.7,8.9,4.2,12.6,0.9c0,0,0.1,0,0.1-0.1
	c0.7,0.2,1.5,0.3,2.2,0.3c4,0,7.6-2.7,8.6-6.6c3.6-1.3,5.9-4.6,5.9-8.4c0-1.3-0.3-2.7-0.9-3.9C139,136.9,139.5,135.3,139.5,133.7z"
	/>
<path class="st3" d="M131.8,137.9c1.8,2.2,1.5,5.5-0.7,7.4c-0.8,0.6-1.7,1-2.7,1.1c-0.1,2.8-2.4,5-5.3,5c-0.8,0-1.6-0.2-2.4-0.6
	c-1.7,2.4-4.9,2.9-7.3,1.2c-0.7-0.5-1.3-1.2-1.7-2c-2.5,1.4-5.7,0.4-7-2.1c-0.3-0.6-0.5-1.3-0.6-2c-2.8-0.7-4.4-3.6-3.7-6.4
	c0.2-0.8,0.6-1.4,1.1-2c-1.9-2.2-1.6-5.5,0.6-7.4c0.6-0.5,1.4-0.9,2.2-1.1c-0.9-2.7,0.6-5.7,3.3-6.6c0.5-0.2,1.1-0.3,1.7-0.3
	c0.9,0,1.8,0.3,2.6,0.7c1.5-2.5,4.7-3.3,7.2-1.9c0.7,0.4,1.2,0.9,1.7,1.5c0.6-0.3,1.3-0.4,2-0.4c2.9,0,5.3,2.4,5.3,5.3l0,0
	c0,0.5-0.1,0.9-0.2,1.4h0.2c2.9,0,5.3,2.4,5.3,5.3C133.3,135.6,132.8,136.9,131.8,137.9L131.8,137.9z"/>
<circle class="st2" cx="116.8" cy="136.7" r="8.8"/>
</svg>
