<?xml version="1.0" encoding="utf-8"?>
<!-- Generator: Adobe Illustrator 23.0.0, SVG Export Plug-In . SVG Version: 6.00 Build 0)  -->
<svg version="1.1" id="Layer_1" xmlns="http://www.w3.org/2000/svg" xmlns:xlink="http://www.w3.org/1999/xlink" x="0px" y="0px"
	 viewBox="0 0 235 235" style="enable-background:new 0 0 235 235;" xml:space="preserve">
<style type="text/css">
	.st0{opacity:0.4;fill:#BA4A62;enable-background:new    ;}
	.st1{fill:#FFFFFF;}
	.st2{fill:none;stroke:#FFFFFF;stroke-width:3;stroke-miterlimit:10;}
</style>
<title>icon_1</title>
<path class="st0" d="M180.1,118.1c0.4,5.3-0.6,10.6-2.9,15.4c-3.4,6.5-9.3,10.9-17.8,13.1l-0.7,0.2c-8.5,2.2-15.9,1.3-22-2.7
	c-7.7-5-12.2-14.5-13.3-21.7c-0.5-4.4-0.8-8.8-0.9-13.2l-0.1-1c14.4-7.2,28.6,12.3,40.8,14.5s16.4-4.2,16.4-4.2L180.1,118.1z"/>
<path class="st0" d="M55.2,118.5c0,0,4.1,6.4,16.3,4.2s26.2-21.7,40.5-14.5l-0.1,1c0,4.4-0.3,8.8-0.8,13.2
	c-1.1,7.1-5.6,16.6-13.2,21.7c-6.1,4-13.4,4.9-21.8,2.7l-0.7-0.2c-8.4-2.2-14.3-6.6-17.7-13.1c-2.3-4.8-3.3-10.1-2.9-15.4
	L55.2,118.5z"/>
<path class="st1" d="M76.4,150.5c0.2-0.7,0.9-1.2,1.7-1.1c8.1,1.5,15.3,0.3,21.4-3.7c9-5.9,13.4-16.5,14.4-23.7
	c1.6-10.8,0.8-36.6,0.7-37.7l0,0c0-0.6-0.5-1.2-1.1-1.4l-19.4-5.1L92,77.3l-18.4-4.8c-0.6-0.2-1.3,0.1-1.6,0.7l0,0
	c-0.6,0.9-13.9,23-17.8,33.2c-2.6,6.8-3.9,18.2,1,27.7c3.3,6.5,9,11.1,16.8,13.8c0.7,0.2,1.2,1,1,1.8l-6.7,25.5
	c-0.2,0.8-1,1.2-1.8,1l-21-5.5c-0.8-0.2-1.6,0.2-1.8,1l0,0c-0.2,0.8,0.2,1.6,1,1.8l23.1,6.1l2.1,0.6l23.1,6.1c0.8,0.2,1.6-0.2,1.8-1
	l0,0c0.2-0.8-0.2-1.6-1-1.8l-21-5.5c-0.8-0.2-1.2-1-1-1.8L76.4,150.5z M76.1,146l-0.7-0.2c-8.4-2.2-14.3-6.6-17.7-13.1
	c-2.3-4.8-3.3-10.1-2.9-15.4c0.2-3.4,0.9-6.7,2-9.9c3.2-8.3,13.1-25.2,16.5-30.9c0.3-0.6,1-0.8,1.6-0.7l16.3,4.3l2.1,0.6l17.3,4.5
	c0.6,0.2,1.1,0.7,1.1,1.4c0.2,6.6,0.5,26.2-0.8,35c-1.1,7.2-5.6,16.6-13.2,21.7C91.8,147.3,84.5,148.2,76.1,146L76.1,146z"/>
<path class="st2" d="M54,116.6c0,0,5.3,7.5,17.5,5.2s27.1-21.4,41.4-14.2"/>
<path class="st1" d="M158.6,150.5c-0.2-0.7-0.9-1.2-1.7-1.1c-8.1,1.5-15.3,0.3-21.4-3.7c-8.9-5.9-13.4-16.5-14.4-23.7
	c-1.6-10.8-0.8-36.6-0.7-37.7l0,0c0-0.6,0.5-1.2,1.1-1.4l19.4-5.1l2.1-0.6l18.4-4.8c0.6-0.2,1.3,0.1,1.6,0.7l0,0
	c0.6,0.9,13.9,23,17.9,33.2c2.6,6.8,3.9,18.2-1,27.7c-3.3,6.5-9,11.1-16.8,13.8c-0.7,0.2-1.2,1-1,1.8l6.7,25.5c0.2,0.8,1,1.2,1.8,1
	l21-5.5c0.8-0.2,1.6,0.2,1.8,1l0,0c0.2,0.8-0.2,1.6-1,1.8l-23.1,6.1l-2.1,0.6l-23.1,6.1c-0.8,0.2-1.6-0.2-1.8-1l0,0
	c-0.2-0.8,0.2-1.6,1-1.8l21-5.5c0.8-0.2,1.2-1,1-1.8L158.6,150.5z M158.9,146l0.7-0.2c8.4-2.2,14.3-6.6,17.7-13.1
	c2.3-4.8,3.3-10.1,2.9-15.4c-0.2-3.4-0.8-6.7-2-9.9c-3.2-8.3-13.1-25.2-16.5-30.9c-0.3-0.6-1-0.8-1.6-0.7l-16.3,4.3l-2.1,0.6
	l-17.3,4.5c-0.6,0.2-1.1,0.7-1.1,1.4c-0.2,6.6-0.5,26.2,0.8,35c1.1,7.2,5.5,16.6,13.2,21.7C143.2,147.3,150.5,148.2,158.9,146
	L158.9,146z"/>
<path class="st2" d="M181,116.6c0,0-5.3,7.5-17.5,5.2s-27.9-21.4-42.2-14.2"/>
<path class="st1" d="M117.5,48.9L117.5,48.9c0.7,0,1.3,0.6,1.3,1.3v22.2c0,0.7-0.6,1.3-1.3,1.3l0,0c-0.7,0-1.3-0.6-1.3-1.3V50.2
	C116.2,49.4,116.8,48.9,117.5,48.9z"/>
<path class="st1" d="M100.3,61.6L100.3,61.6c0.5-0.5,1.3-0.5,1.8,0l11.3,11.3c0.5,0.5,0.5,1.3,0,1.8l0,0c-0.5,0.5-1.3,0.5-1.8,0
	l-11.3-11.3C99.8,62.9,99.8,62.1,100.3,61.6z"/>
<path class="st1" d="M121.6,74.7L121.6,74.7c-0.5-0.5-0.5-1.3,0-1.8l11.3-11.3c0.5-0.5,1.3-0.5,1.8,0l0,0c0.5,0.5,0.5,1.3,0,1.8
	l-11.3,11.3C122.9,75.2,122.1,75.2,121.6,74.7z"/>
<path class="st1" d="M53.7,73.4l-0.8-3.7l0,0l-2.6-0.9c0,0-0.1-0.1,0-0.1c0,0,0,0,0,0l2.7-1.3c0,0,0.1,0,0.1-0.1l1.4-4.2
	c0-0.1,0.2-0.1,0.2,0l0.8,4.1l0,0l2.6,0.9c0,0,0.1,0.1,0,0.1c0,0,0,0,0,0l-2.7,1.2c0,0,0,0,0,0.1l-1.3,3.7
	C53.8,73.5,53.7,73.5,53.7,73.4z"/>
<path class="st1" d="M67.6,67.8l-1.1-3.7c0,0,0,0,0-0.1l-2.8-1.2c0,0-0.1-0.1,0-0.1c0,0,0,0,0,0l2.6-1c0,0,0,0,0-0.1l1-4
	c0,0,0.1-0.1,0.1-0.1c0,0,0,0,0.1,0.1l1.2,4.2c0,0,0,0,0,0.1l2.9,1.1c0,0,0.1,0.1,0,0.1c0,0,0,0,0,0l-2.6,1l0,0l-1,3.6
	c0,0.1,0,0.1-0.1,0.2C67.7,68,67.6,67.9,67.6,67.8L67.6,67.8z"/>
<path class="st1" d="M63.2,76.9l-0.8-2.5l0,0l-1.9-0.8c0,0,0,0,0-0.1c0,0,0,0,0,0l1.8-0.7l0,0l0.7-2.7c0,0,0,0,0.1,0c0,0,0,0,0,0
	l0.8,2.8l0,0l1.8,0.8c0,0,0,0,0,0.1c0,0,0,0,0,0L64,74.5l0,0l-0.7,2.4C63.3,77,63.3,77,63.2,76.9C63.2,77,63.2,77,63.2,76.9z"/>
<path class="st1" d="M176.4,69.2l0.8-3.7c0,0,0,0,0.1,0l2.6-0.9c0.1,0,0.1-0.1,0-0.2l-2.7-1.3c0,0,0,0-0.1-0.1l-1.4-4.2
	c0-0.1-0.2-0.1-0.2,0l-0.8,4.1c0,0,0,0.1,0,0.1l-2.6,0.9c0,0-0.1,0.1,0,0.1c0,0,0,0,0,0l2.7,1.3c0,0,0.1,0,0.1,0.1l1.3,3.7
	C176.3,69.2,176.4,69.2,176.4,69.2z"/>
<path class="st1" d="M162.4,63.6l1.2-3.7c0,0,0-0.1,0.1-0.1l2.7-1.1c0,0,0.1-0.1,0-0.1c0,0,0,0,0,0l-2.6-1c0,0,0,0-0.1-0.1l-1-4
	c0,0-0.1-0.1-0.1-0.1c0,0,0,0-0.1,0.1l-1.2,4.2c0,0,0,0,0,0.1l-2.7,1.1c0,0-0.1,0.1-0.1,0.1c0,0,0,0,0.1,0.1l2.6,1
	c0,0,0.1,0,0.1,0.1l1,3.6C162.3,63.7,162.4,63.7,162.4,63.6C162.4,63.6,162.4,63.6,162.4,63.6z"/>
<path class="st1" d="M166.9,72.7l0.8-2.5l0,0l1.8-0.8c0.1,0,0.1-0.1,0-0.1l-1.8-0.7l0,0l-0.7-2.7c0,0,0,0-0.1,0c0,0,0,0,0,0
	l-0.8,2.8l0,0l-1.8,0.8c0,0,0,0,0,0.1c0,0,0,0,0,0l1.8,0.7l0,0l0.7,2.4C166.8,72.7,166.9,72.8,166.9,72.7z"/>
</svg>
