<svg id="Layer_1" data-name="Layer 1" xmlns="http://www.w3.org/2000/svg" viewBox="0 0 134.76 38.7"><defs><style>.cls-1{fill:#020202;}.cls-2{fill:#78121a;}.cls-3{fill:#431418;}.cls-4{fill:#c8334d;}.cls-5{fill:#231f20;}</style></defs><title>Logo</title><g id="Layer_1-2-2" data-name="Layer 1-2-2"><path class="cls-1" d="M45.47,16.9a6.6,6.6,0,0,0-1.22-1.08A6.76,6.76,0,0,0,42.8,15a8.71,8.71,0,0,0-1.68-.47,11.34,11.34,0,0,0-1.93-.16,7.63,7.63,0,0,0-4.88,1.27,4.25,4.25,0,0,0-1.54,3.43,3.47,3.47,0,0,0,.69,2.31,4.86,4.86,0,0,0,2.18,1.37,31.22,31.22,0,0,0,3.83,1A27.6,27.6,0,0,1,43.76,25a6.5,6.5,0,0,1,2.79,1.88,5,5,0,0,1,1,3.22A5.83,5.83,0,0,1,47,32.76a5.09,5.09,0,0,1-1.68,1.89,8.18,8.18,0,0,1-2.59,1.12,13.49,13.49,0,0,1-3.34.39A14.88,14.88,0,0,1,36,35.77a12.85,12.85,0,0,1-3-1.13,11.87,11.87,0,0,1-2.65-1.9l.87-1.33a9.42,9.42,0,0,0,1.58,1.38,10.17,10.17,0,0,0,1.94,1,12.76,12.76,0,0,0,2.24.66,11.55,11.55,0,0,0,2.49.24,8.45,8.45,0,0,0,4.69-1.11,3.67,3.67,0,0,0,1.69-3.31A3.65,3.65,0,0,0,45,27.83a5.5,5.5,0,0,0-2.38-1.53,28.3,28.3,0,0,0-4-1.11A31,31,0,0,1,34.5,24,5.71,5.71,0,0,1,32,22.28a4.65,4.65,0,0,1-.85-3,5.93,5.93,0,0,1,1-3.49A6.28,6.28,0,0,1,35,13.68a11.28,11.28,0,0,1,4.22-.74,12.15,12.15,0,0,1,2.76.29,9.08,9.08,0,0,1,2.36.88,10.12,10.12,0,0,1,2,1.5Z" transform="translate(-28 -12.94)"/><path class="cls-1" d="M61.69,36.15a9.93,9.93,0,0,1-4.58-1,7.88,7.88,0,0,1-2.93-2.63,11.5,11.5,0,0,1-1.58-3.73,18.32,18.32,0,0,1-.5-4.23V13.09h1.64V24.6a18,18,0,0,0,.41,3.66,10.21,10.21,0,0,0,1.28,3.24,6.46,6.46,0,0,0,2.41,2.29,7.93,7.93,0,0,0,3.82.84,7.73,7.73,0,0,0,3.86-.87,6.51,6.51,0,0,0,2.41-2.31,9.85,9.85,0,0,0,1.27-3.22,18.44,18.44,0,0,0,.36-3.62V13.09h1.65V24.6a18.37,18.37,0,0,1-.5,4.37,10.74,10.74,0,0,1-1.62,3.7,8.09,8.09,0,0,1-2.94,2.54A9.55,9.55,0,0,1,61.69,36.15Z" transform="translate(-28 -12.94)"/><path class="cls-1" d="M98.4,36V16.28l-9,15.42H88.3l-9-15.42V36H77.65V13.09h1.64l9.56,16.38L98.4,13.09h1.65V36Z" transform="translate(-28 -12.94)"/><path class="cls-1" d="M127.59,36V16.28l-9,15.42h-1.08l-9-15.42V36h-1.66V13.09h1.64l9.56,16.38,9.55-16.38h1.64V36Z" transform="translate(-28 -12.94)"/><path class="cls-1" d="M136,36V13.09h1.64V36Z" transform="translate(-28 -12.94)"/><path class="cls-1" d="M160.49,14.57h-8.38V36h-1.65V14.57h-8.39V13.09h18.42Z" transform="translate(-28 -12.94)"/><path class="cls-2" d="M63.75,33.75l.13,0Z" transform="translate(-28 -12.94)"/><path class="cls-2" d="M66.63,25.24c.19-4.23,1.3-5.33,2.3-5.44V13.89c-1.06.93-2.55,2.88-4,7a21.1,21.1,0,0,1-1.18,8.35c-1.76,4-4.89,4.23-6.12,3.73A9.73,9.73,0,0,0,62,34C64.18,33.29,66.38,31.11,66.63,25.24Z" transform="translate(-28 -12.94)"/><path class="cls-3" d="M57.52,32.83c.74.55,4.33.8,6.28-3.64A21.16,21.16,0,0,0,65,20.83c-.51,1-2.13,9-6.69,8a5.58,5.58,0,0,0-3.38,0A7.23,7.23,0,0,0,57.52,32.83Z" transform="translate(-28 -12.94)"/><path class="cls-4" d="M68.93,19.8c-1,.11-2.11,1.22-2.3,5.44C66.38,31.12,64.17,33.29,62,34c0,0,5.21.29,6.57-6a13.56,13.56,0,0,0,.37-3.65C68.94,21.55,68.93,19.8,68.93,19.8Z" transform="translate(-28 -12.94)"/><path class="cls-2" d="M28,40.5s95.47-.89,134.77,0C162.77,40.5,28,41.19,28,40.5Z" transform="translate(-28 -12.94)"/><path class="cls-5" d="M32.83,51.64h-.18l-.17,0-1.92-5.78.23.21L30,45.86a.52.52,0,0,1,0-.21.4.4,0,0,1,.14-.15h1.87a1,1,0,0,1,0,.24.23.23,0,0,1-.12.1l-.66.17.09-.25L33.08,51H33l1.42-4.74h.37L36.3,51h-.12l1.58-5.17V46L37,45.86a.39.39,0,0,1,0-.21.47.47,0,0,1,.14-.14h1.58a.67.67,0,0,1,0,.24.16.16,0,0,1-.11.1l-.56.15.17-.22-1.7,5.61a.28.28,0,0,1-.11.15.38.38,0,0,1-.17.08.54.54,0,0,1-.18,0,1.13,1.13,0,0,1-.36-.06l-1.43-4.32h.24l-1.24,4.15a.25.25,0,0,1-.1.15.71.71,0,0,1-.18.08Z" transform="translate(-28 -12.94)"/><path class="cls-5" d="M40.12,51.53a.67.67,0,0,1,0-.24.22.22,0,0,1,.11-.1L40.9,51l-.14.15V45.89l.15.15-.79-.18a.52.52,0,0,1,0-.21.47.47,0,0,1,.14-.14h1.88a.51.51,0,0,1,0,.24.18.18,0,0,1-.11.1l-.66.17.15-.15v5.3L41.35,51l.83.18a.43.43,0,0,1,0,.19.47.47,0,0,1-.13.15Z" transform="translate(-28 -12.94)"/><path class="cls-5" d="M49.12,51.54h-.29l-3.69-5.21.1,0v5L45.17,51l.82.16a.45.45,0,0,1,0,.2.34.34,0,0,1-.14.15H44.09a.67.67,0,0,1,0-.24.16.16,0,0,1,.11-.1l.65-.15-.11.25V45.86l.12.18-.81-.18a.52.52,0,0,1,0-.21.43.43,0,0,1,.13-.14h1.18l3.8,5.29-.26.07v-5l.05.22-.79-.2a.51.51,0,0,1,0-.21l.14-.14h1.72a.67.67,0,0,1,0,.24.2.2,0,0,1-.11.11l-.65.14.1-.21v5.53a.11.11,0,0,1,0,.1.78.78,0,0,1-.26.12Z" transform="translate(-28 -12.94)"/><path class="cls-5" d="M51.87,51.53a.67.67,0,0,1,0-.24.26.26,0,0,1,.11-.1l.62-.17-.14.15V45.89l.13.15-.76-.18a.52.52,0,0,1,0-.21.47.47,0,0,1,.14-.14h4v1.18a.66.66,0,0,1-.24,0,.24.24,0,0,1-.11-.13l-.24-.72.14.09L53.18,46l.1-.12v2.43l-.09-.07h2l-.12.07.12-.66a.57.57,0,0,1,.18,0,.23.23,0,0,1,.16.11v1.32a.31.31,0,0,1-.16.11h-.18L55,48.57l.13.08h-2l.09-.08v2.52l-.09-.1,2.61.17-.12.12.25-1.12a.37.37,0,0,1,.21,0,.42.42,0,0,1,.15.11v1.24Z" transform="translate(-28 -12.94)"/><path class="cls-5" d="M63,51.64a2.87,2.87,0,0,1-1-.18,1.69,1.69,0,0,1-.7-.57A1.48,1.48,0,0,1,61,50a1.47,1.47,0,0,1,.21-.81,2.06,2.06,0,0,1,.54-.56,7.56,7.56,0,0,1,.71-.44,6.65,6.65,0,0,0,.71-.41,2.18,2.18,0,0,0,.54-.51,1.08,1.08,0,0,0,.21-.69,1,1,0,0,0-.22-.63.79.79,0,0,0-.61-.25.83.83,0,0,0-.63.25.84.84,0,0,0-.24.63,1.23,1.23,0,0,0,.19.65,7.76,7.76,0,0,0,.65.86l2,2.26a2.68,2.68,0,0,0,.5.45,1.58,1.58,0,0,0,.54.22,2.76,2.76,0,0,0,.7.06.44.44,0,0,1-.08.25.62.62,0,0,1-.26.22.88.88,0,0,1-.42.08,1.66,1.66,0,0,1-.75-.18,2.16,2.16,0,0,1-.74-.6l-2.08-2.43a8.72,8.72,0,0,1-.53-.71,2.48,2.48,0,0,1-.29-.56,1.48,1.48,0,0,1-.08-.46,1.19,1.19,0,0,1,.43-.95,1.91,1.91,0,0,1,1.82-.21,1.22,1.22,0,0,1,.5.4,1.12,1.12,0,0,1,.19.64,1.32,1.32,0,0,1-.2.69,2,2,0,0,1-.5.5c-.21.14-.44.28-.67.41a6.68,6.68,0,0,0-.67.41,2.37,2.37,0,0,0-.5.5,1.43,1.43,0,0,0-.2.75,1.55,1.55,0,0,0,.18.73,1.27,1.27,0,0,0,.5.5,1.41,1.41,0,0,0,.73.17,1.78,1.78,0,0,0,1.24-.47,3,3,0,0,0,.77-1.3,5.83,5.83,0,0,0,.3-1.94l.14.22-1-.05a.81.81,0,0,1,0-.22.19.19,0,0,1,.09-.14l2.13-.15a.3.3,0,0,1,0,.08v.12a.55.55,0,0,1-.07.25.36.36,0,0,1-.19.15l-.79,0,.16-.22a5.82,5.82,0,0,1-.21,1.66,3.74,3.74,0,0,1-.63,1.3A2.88,2.88,0,0,1,63,51.64Z" transform="translate(-28 -12.94)"/><path class="cls-5" d="M73.4,51.64a3.39,3.39,0,0,1-.64-.06,5.62,5.62,0,0,1-.71-.16,5,5,0,0,1-.64-.25l.18-1.29a.27.27,0,0,1,.24-.13H72l.06,1.31-.17-.37a1.92,1.92,0,0,0,.44.25,3.74,3.74,0,0,0,.54.17,3,3,0,0,0,.51.07,1.25,1.25,0,0,0,.88-.32,1.07,1.07,0,0,0,.35-.82.9.9,0,0,0-.12-.5,1.15,1.15,0,0,0-.42-.4,5.92,5.92,0,0,0-.87-.44,5.7,5.7,0,0,1-.94-.51,1.58,1.58,0,0,1-.5-.56,1.62,1.62,0,0,1-.15-.71,1.45,1.45,0,0,1,.5-1.14,1.88,1.88,0,0,1,1.28-.43,3.85,3.85,0,0,1,.83.1,4.71,4.71,0,0,1,.86.32L75,47a.49.49,0,0,1-.24,0,.17.17,0,0,1-.1-.12l-.12-.93.2.35a1.43,1.43,0,0,0-.56-.35,2,2,0,0,0-.73-.13,1.16,1.16,0,0,0-.82.26.92.92,0,0,0-.31.7,1,1,0,0,0,.13.5,1.3,1.3,0,0,0,.43.41,7.09,7.09,0,0,0,.87.44,5.4,5.4,0,0,1,1,.53,1.61,1.61,0,0,1,.5.57,1.47,1.47,0,0,1,.15.71,1.62,1.62,0,0,1-.24.91,1.54,1.54,0,0,1-.68.61A2.37,2.37,0,0,1,73.4,51.64Z" transform="translate(-28 -12.94)"/><path class="cls-5" d="M77.28,51.53a.67.67,0,0,1,0-.24.18.18,0,0,1,.11-.1l.65-.17-.15.15V45.89l.13.15-.78-.18a.76.76,0,0,1,0-.21.29.29,0,0,1,.13-.14h2.4a2.1,2.1,0,0,1,1,.23,1.44,1.44,0,0,1,.65.62,1.75,1.75,0,0,1,.22.83,1.9,1.9,0,0,1-.27,1,1.93,1.93,0,0,1-.78.72,2.29,2.29,0,0,1-1.2.28,2.19,2.19,0,0,1-.51,0,2.75,2.75,0,0,1-.5-.09h.16v2.23L78.48,51l.91.17a.83.83,0,0,1,0,.22.35.35,0,0,1-.14.13Zm1.43-2.82-.15-.16a1.89,1.89,0,0,0,.41.1,4.93,4.93,0,0,0,.55,0,1.53,1.53,0,0,0,.78-.19,1.19,1.19,0,0,0,.46-.51,1.49,1.49,0,0,0,.16-.69,1.22,1.22,0,0,0-1.37-1.35A4.58,4.58,0,0,0,79,46l-.45.09.14-.13Z" transform="translate(-28 -12.94)"/><path class="cls-5" d="M83.44,51.53a.67.67,0,0,1,0-.24.18.18,0,0,1,.11-.1l.63-.17-.14.15V45.89l.15.15-.79-.18a.52.52,0,0,1,0-.21.47.47,0,0,1,.14-.14H85.5a.67.67,0,0,1,0,.24.18.18,0,0,1-.13.11l-.67.17.17-.17v5.31L84.65,51l.83.18a.43.43,0,0,1,0,.19.32.32,0,0,1-.13.15Z" transform="translate(-28 -12.94)"/><path class="cls-5" d="M87.43,51.53a.52.52,0,0,1,0-.24.18.18,0,0,1,.11-.1l.64-.17-.15.15V45.89l.13.15-.75-.18a.39.39,0,0,1,0-.21.25.25,0,0,1,.13-.14H90a2.07,2.07,0,0,1,1,.22,1.47,1.47,0,0,1,.85,1.34,1.61,1.61,0,0,1-.27.9,1.94,1.94,0,0,1-.74.68,2.32,2.32,0,0,1-1.18.26,4.19,4.19,0,0,1-.5,0,2.73,2.73,0,0,1-.48-.1h.15v2.44L88.64,51l.91.17a.42.42,0,0,1,0,.22.4.4,0,0,1-.13.13Zm1.43-3-.14-.15a2.71,2.71,0,0,0,.41.09l.54,0a1.41,1.41,0,0,0,.75-.18,1.11,1.11,0,0,0,.44-.47A1.37,1.37,0,0,0,91,47.2a1.26,1.26,0,0,0-.35-.94,1.42,1.42,0,0,0-1-.32,3.15,3.15,0,0,0-.53,0l-.44.08.13-.13Zm3.33,3.12a.94.94,0,0,1-.51-.19,3.24,3.24,0,0,1-.59-.58,6.47,6.47,0,0,1-.64-.91,12.9,12.9,0,0,1-.6-1.24l.58-.19a13.23,13.23,0,0,0,.82,1.28,8.72,8.72,0,0,0,.82,1,3.37,3.37,0,0,0,.68.57.79.79,0,0,1-.25.19.55.55,0,0,1-.31.07Z" transform="translate(-28 -12.94)"/><path class="cls-5" d="M94.25,51.53a.51.51,0,0,1,0-.24.18.18,0,0,1,.11-.1L95,51l-.13.15V45.89L95,46l-.79-.18a.39.39,0,0,1,0-.21.57.57,0,0,1,.13-.14h1.89a1,1,0,0,1,0,.24.23.23,0,0,1-.12.1L95.5,46l.16-.15v5.3L95.48,51l.83.18a1.25,1.25,0,0,1,0,.19.54.54,0,0,1-.15.15Z" transform="translate(-28 -12.94)"/><path class="cls-5" d="M99.36,51.53a.66.66,0,0,1,0-.24.17.17,0,0,1,.12-.1l.78-.2-.14.18V45.91l.11.12-1.83-.12.13-.09-.24.82a.17.17,0,0,1-.1.12.47.47,0,0,1-.24,0V45.52h5.1V46.8a.47.47,0,0,1-.23,0,.22.22,0,0,1-.11-.12l-.22-.82.13.09-1.83.12.1-.12v5.25l-.15-.17,1.07.19a.63.63,0,0,1,0,.19.5.5,0,0,1-.14.15Z" transform="translate(-28 -12.94)"/><path class="cls-5" d="M106.39,51.64a3.47,3.47,0,0,1-.64-.06,5.88,5.88,0,0,1-.7-.16,4.47,4.47,0,0,1-.64-.25l.17-1.27a.29.29,0,0,1,.24-.13H105l.07,1.31-.18-.37a2.55,2.55,0,0,0,.46.25,3.27,3.27,0,0,0,.53.17,2.24,2.24,0,0,0,.51.07,1.25,1.25,0,0,0,.88-.32,1.07,1.07,0,0,0,.35-.82.9.9,0,0,0-.12-.5,1.24,1.24,0,0,0-.42-.4,5.92,5.92,0,0,0-.87-.44,5.23,5.23,0,0,1-.93-.51,1.52,1.52,0,0,1-.51-.56,1.78,1.78,0,0,1-.15-.71,1.47,1.47,0,0,1,.51-1.14,1.83,1.83,0,0,1,1.27-.43,3.85,3.85,0,0,1,.83.1,3.93,3.93,0,0,1,.87.31L108,47a.53.53,0,0,1-.25-.05.13.13,0,0,1-.09-.11l-.12-.93.19.34a1.42,1.42,0,0,0-.55-.34,2.11,2.11,0,0,0-.74-.14,1.21,1.21,0,0,0-.82.27.89.89,0,0,0-.29.69.86.86,0,0,0,.12.5,1.13,1.13,0,0,0,.43.41,5.92,5.92,0,0,0,.87.44,6.24,6.24,0,0,1,1,.54,1.67,1.67,0,0,1,.5.56,1.51,1.51,0,0,1,.15.72,1.6,1.6,0,0,1-.89,1.5A2.4,2.4,0,0,1,106.39,51.64Z" transform="translate(-28 -12.94)"/><path class="cls-5" d="M114.19,51.53a.67.67,0,0,1,0-.24.16.16,0,0,1,.11-.1l.79-.2-.14.18V45.91l.1.12-1.83-.12.13-.09-.24.82a.16.16,0,0,1-.09.12.51.51,0,0,1-.24,0V45.52h5.1V46.8a.45.45,0,0,1-.23,0,.16.16,0,0,1-.11-.12l-.23-.82.13.09-1.83.12.11-.12v5.25L115.6,51l1.07.19a.32.32,0,0,1,0,.19.34.34,0,0,1-.14.15Z" transform="translate(-28 -12.94)"/><path class="cls-5" d="M118.48,51.53a.69.69,0,0,1,0-.24.13.13,0,0,1,.1-.1l.55-.17-.23.24,2.08-5.7a.18.18,0,0,1,.1-.11.44.44,0,0,1,.15-.05h.38l2.26,5.82-.3-.23.83.17a.32.32,0,0,1,0,.19.5.5,0,0,1-.14.15h-1.89a.45.45,0,0,1,0-.23.16.16,0,0,1,.11-.1l.64-.18-.09.19-2-5.13h.2l-1.9,5.22V51l.83.17a.69.69,0,0,1,0,.2.39.39,0,0,1-.16.15Zm1.43-2,.1-.4h2.46l.13.4Z" transform="translate(-28 -12.94)"/><path class="cls-5" d="M127.75,51.64a3.47,3.47,0,0,1-.64-.06,5.88,5.88,0,0,1-.7-.16,5.12,5.12,0,0,1-.65-.25l.18-1.27a.28.28,0,0,1,.24-.13h.18l.07,1.31-.18-.37a2.46,2.46,0,0,0,.45.25,3.38,3.38,0,0,0,.54.17,2.87,2.87,0,0,0,.5.07,1.21,1.21,0,0,0,.9-.32,1,1,0,0,0,.35-.81,1.06,1.06,0,0,0-.12-.5,1.27,1.27,0,0,0-.42-.41,7.09,7.09,0,0,0-.87-.44,4.7,4.7,0,0,1-.94-.5,1.52,1.52,0,0,1-.51-.56,1.79,1.79,0,0,1-.15-.72,1.45,1.45,0,0,1,.51-1.13,1.83,1.83,0,0,1,1.27-.43,3.85,3.85,0,0,1,.83.1,4.19,4.19,0,0,1,.86.31L129.31,47a.52.52,0,0,1-.24,0,.12.12,0,0,1-.09-.11l-.13-.93.2.34a1.53,1.53,0,0,0-.56-.34,2,2,0,0,0-.74-.14,1.2,1.2,0,0,0-.81.27,1,1,0,0,0-.18,1.17,1.24,1.24,0,0,0,.44.41,5.07,5.07,0,0,0,.87.44,5.88,5.88,0,0,1,1,.56,1.58,1.58,0,0,1,.5.56,1.51,1.51,0,0,1,.15.72,1.62,1.62,0,0,1-.92,1.51A2.43,2.43,0,0,1,127.75,51.64Z" transform="translate(-28 -12.94)"/><path class="cls-5" d="M132.46,51.53a.41.41,0,0,1,0-.24.13.13,0,0,1,.11-.1l.78-.2-.14.18V45.91l.11.12-1.83-.12.13-.09-.25.82a.16.16,0,0,1-.09.12.45.45,0,0,1-.23,0V45.52h5.1V46.8a.49.49,0,0,1-.24,0,.22.22,0,0,1-.11-.12l-.23-.82.13.09-1.82.12.1-.12v5.25l-.15-.17,1.07.18a.48.48,0,0,1,0,.2.37.37,0,0,1-.13.15Z" transform="translate(-28 -12.94)"/><path class="cls-5" d="M137.88,51.53a.52.52,0,0,1,.05-.24.13.13,0,0,1,.1-.1l.63-.17-.14.15V45.89l.15.15-.79-.18a.52.52,0,0,1,0-.21.38.38,0,0,1,.14-.14h1.88a.51.51,0,0,1,0,.24.14.14,0,0,1-.11.1l-.66.17.15-.15v5.3l-.17-.16.83.18a.43.43,0,0,1,0,.19.38.38,0,0,1-.13.15Z" transform="translate(-28 -12.94)"/><path class="cls-5" d="M146.89,51.54h-.3l-3.7-5.17.1-.06v5l-.06-.22.81.16a.75.75,0,0,1,0,.2.32.32,0,0,1-.14.14h-1.7a.45.45,0,0,1,0-.23.2.2,0,0,1,.11-.11l.63-.18-.1.25V45.86l.11.18-.8-.16a.38.38,0,0,1,0-.21.29.29,0,0,1,.13-.14h1.18L147,50.81l-.26.07v-5l.06.22-.81-.21a.52.52,0,0,1,0-.21.47.47,0,0,1,.14-.14h1.71a.67.67,0,0,1,0,.24.2.2,0,0,1-.11.11l-.65.14.1-.21v5.53a.14.14,0,0,1-.05.1.37.37,0,0,1-.12.07A.31.31,0,0,1,146.89,51.54Z" transform="translate(-28 -12.94)"/><path class="cls-5" d="M152.32,51.64a2.91,2.91,0,0,1-1.47-.36,2.55,2.55,0,0,1-1-1,3.3,3.3,0,0,1-.34-1.51,3.65,3.65,0,0,1,.23-1.35,3.2,3.2,0,0,1,.66-1.07,3,3,0,0,1,1-.72,3.17,3.17,0,0,1,1.25-.25,3.57,3.57,0,0,1,.92.12,2.71,2.71,0,0,1,.82.35l-.19,1.32a1.1,1.1,0,0,1-.26-.06.18.18,0,0,1-.1-.13l-.06-.84.12.17a1.44,1.44,0,0,0-.62-.3,3,3,0,0,0-.85-.12,2,2,0,0,0-1.11.31,2,2,0,0,0-.74.9,4,4,0,0,0,0,2.82,2.08,2.08,0,0,0,.74.92,2,2,0,0,0,1.14.34,1.88,1.88,0,0,0,1.33-.51l-.13.3V49.1l.13.22-.92-.19a.39.39,0,0,1,0-.21.35.35,0,0,1,.14-.13h1.8a.42.42,0,0,1,0,.22.2.2,0,0,1-.12.12l-.5.17.17-.21V51a3.35,3.35,0,0,1-1,.5A3.58,3.58,0,0,1,152.32,51.64Z" transform="translate(-28 -12.94)"/><path class="cls-5" d="M158.63,51.64a3.39,3.39,0,0,1-.64-.06,5.47,5.47,0,0,1-.7-.16,5.12,5.12,0,0,1-.65-.25l.18-1.27a.28.28,0,0,1,.24-.13h.18l.06,1.31-.17-.37a2,2,0,0,0,.45.25,3.09,3.09,0,0,0,.54.17,2.74,2.74,0,0,0,.5.07,1.25,1.25,0,0,0,.88-.32,1.07,1.07,0,0,0,.35-.82.9.9,0,0,0-.12-.5,1.24,1.24,0,0,0-.42-.4,5.92,5.92,0,0,0-.87-.44,5.7,5.7,0,0,1-.94-.51,1.57,1.57,0,0,1-.14-2.41,1.86,1.86,0,0,1,1.28-.43,3.75,3.75,0,0,1,.82.1,4.54,4.54,0,0,1,.87.32L160.19,47a.47.47,0,0,1-.24,0,.17.17,0,0,1-.1-.12l-.1-.91.2.35a1.43,1.43,0,0,0-.56-.35,2,2,0,0,0-.74-.13,1.15,1.15,0,0,0-.81.26,1,1,0,0,0-.18,1.2,1.24,1.24,0,0,0,.44.41,5.9,5.9,0,0,0,.87.44,5.47,5.47,0,0,1,1,.53,1.61,1.61,0,0,1,.5.57,1.47,1.47,0,0,1,.15.71,1.62,1.62,0,0,1-.24.91,1.54,1.54,0,0,1-.68.61A2.24,2.24,0,0,1,158.63,51.64Z" transform="translate(-28 -12.94)"/></g></svg>