<svg id="Layer_1" data-name="Layer 1" xmlns="http://www.w3.org/2000/svg" viewBox="0 0 268 76.97"><defs><style>.cls-1{fill:#020202;}.cls-2{fill:#78121a;}.cls-3{fill:#431418;}.cls-4{fill:#c8334d;}.cls-5{fill:#231f20;}</style></defs><title>Logo</title><g id="Layer_1-2-2" data-name="Layer 1-2-2"><path class="cls-1" d="M42.74,13.39a13.81,13.81,0,0,0-2.43-2.15A14.51,14.51,0,0,0,37.43,9.7a17.61,17.61,0,0,0-3.34-.93,21.59,21.59,0,0,0-3.85-.32q-6.66,0-9.7,2.53a8.52,8.52,0,0,0-3.07,6.82,7,7,0,0,0,1.38,4.58,9.5,9.5,0,0,0,4.33,2.72,61.15,61.15,0,0,0,7.63,2,54.84,54.84,0,0,1,8.53,2.4,13.08,13.08,0,0,1,5.54,3.75,9.68,9.68,0,0,1,1.95,6.4,11.53,11.53,0,0,1-1.15,5.29,10.13,10.13,0,0,1-3.34,3.75,16.46,16.46,0,0,1-5.16,2.23,26,26,0,0,1-6.64.77,28.78,28.78,0,0,1-6.73-.77,26.29,26.29,0,0,1-6-2.24,23.38,23.38,0,0,1-5.26-3.79l1.73-2.63A18.22,18.22,0,0,0,17.43,45a20.69,20.69,0,0,0,3.85,2,25.63,25.63,0,0,0,4.46,1.31,24.12,24.12,0,0,0,4.94.48q6,0,9.33-2.21A7.32,7.32,0,0,0,43.38,40a7.32,7.32,0,0,0-1.54-4.85,11.05,11.05,0,0,0-4.74-3.06,58.08,58.08,0,0,0-8-2.2,58.13,58.13,0,0,1-8.18-2.31,11.36,11.36,0,0,1-5.07-3.47,9.38,9.38,0,0,1-1.7-5.89,11.76,11.76,0,0,1,2-7A12.47,12.47,0,0,1,21.83,7a22.51,22.51,0,0,1,8.4-1.47,24.68,24.68,0,0,1,5.49.58A17.84,17.84,0,0,1,40.4,7.84a19.19,19.19,0,0,1,4,3Z" transform="translate(-8 -5.51)"/><path class="cls-1" d="M75,51.68a19.51,19.51,0,0,1-9.11-1.92,15.37,15.37,0,0,1-5.83-5.23,22.49,22.49,0,0,1-3.14-7.41,36.7,36.7,0,0,1-1-8.41V5.82h3.27V28.71A35.61,35.61,0,0,0,60,36a20.34,20.34,0,0,0,2.54,6.44A12.81,12.81,0,0,0,67.34,47a15.75,15.75,0,0,0,7.6,1.66,15.33,15.33,0,0,0,7.66-1.73,13.13,13.13,0,0,0,4.81-4.58,19.62,19.62,0,0,0,2.51-6.42,35.54,35.54,0,0,0,.73-7.2V5.82h3.28V28.71a36.91,36.91,0,0,1-1,8.69,21.41,21.41,0,0,1-3.23,7.35,15.92,15.92,0,0,1-5.84,5.06A19,19,0,0,1,75,51.68Z" transform="translate(-8 -5.51)"/><path class="cls-1" d="M148,51.36V12.17L130.1,42.83h-2.18L110,12.17V51.36h-3.27V5.82H110l19,32.57L148,5.82h3.27V51.36Z" transform="translate(-8 -5.51)"/><path class="cls-1" d="M206.05,51.36V12.17l-17.9,30.66H186L168.1,12.17V51.36h-3.3V5.82h3.27l19,32.57,19-32.57h3.26V51.36Z" transform="translate(-8 -5.51)"/><path class="cls-1" d="M222.85,51.36V5.82h3.27V51.36Z" transform="translate(-8 -5.51)"/><path class="cls-1" d="M271.47,8.77H254.8V51.36h-3.28V8.77H234.84V5.82h36.63Z" transform="translate(-8 -5.51)"/><path class="cls-2" d="M79.09,46.91l.25-.07Z" transform="translate(-8 -5.51)"/><path class="cls-2" d="M84.82,30c.37-8.42,2.58-10.61,4.57-10.82V7.42c-2.11,1.84-5.08,5.72-7.88,13.81.12,7.31-.75,12.94-2.35,16.61-3.5,8-9.72,8.41-12.17,7.41a19.6,19.6,0,0,0,8.62,2.16C79.94,46,84.31,41.66,84.82,30Z" transform="translate(-8 -5.51)"/><path class="cls-3" d="M66.7,45.08c1.48,1.08,8.62,1.59,12.48-7.24,1.6-3.67,2.47-9.31,2.35-16.62-1,2-4.23,17.89-13.3,15.83-3.39-.77-5.47-.57-6.73,0A14.42,14.42,0,0,0,66.7,45.08Z" transform="translate(-8 -5.51)"/><path class="cls-4" d="M89.39,19.17c-2,.21-4.2,2.42-4.57,10.82-.51,11.68-4.89,16-9.21,17.42,0,0,10.35.57,13.07-11.91a27,27,0,0,0,.72-7.27C89.4,22.64,89.39,19.17,89.39,19.17Z" transform="translate(-8 -5.51)"/><path class="cls-2" d="M8,60.32s189.85-1.76,268,0C276,60.32,7.93,61.71,8,60.32Z" transform="translate(-8 -5.51)"/><path class="cls-5" d="M17.59,82.48h-.34a2,2,0,0,1-.35-.07l-3.81-11.5.45.42L12,71a1,1,0,0,1,.07-.42.78.78,0,0,1,.28-.29h3.72a1.23,1.23,0,0,1-.07.46.37.37,0,0,1-.23.21l-1.32.34.18-.5L18.1,81.18h-.24l2.83-9.41h.73l3.07,9.41h-.22L27.4,70.91v.42L25.91,71a1,1,0,0,1,.06-.41.61.61,0,0,1,.27-.28h3.15a1.23,1.23,0,0,1-.07.46.35.35,0,0,1-.23.21l-1.12.3.35-.45L24.93,82a.49.49,0,0,1-.21.3.89.89,0,0,1-.34.16H24a4.45,4.45,0,0,1-.73-.12l-2.83-8.59h.47L18.48,82a.51.51,0,0,1-.21.29,1.11,1.11,0,0,1-.35.16A1.24,1.24,0,0,1,17.59,82.48Z" transform="translate(-8 -5.51)"/><path class="cls-5" d="M32.09,82.26a1.27,1.27,0,0,1,.09-.47.43.43,0,0,1,.21-.21l1.25-.34-.28.3V71l.3.31L32.09,71a1,1,0,0,1,.08-.41.63.63,0,0,1,.28-.28H36.2a1.21,1.21,0,0,1-.08.46.35.35,0,0,1-.22.21l-1.32.34.31-.31V81.55l-.35-.32,1.65.35a1.07,1.07,0,0,1-.07.39.86.86,0,0,1-.27.3Z" transform="translate(-8 -5.51)"/><path class="cls-5" d="M50,82.29h-.59L42.07,71.93l.2-.11V81.7l-.13-.45,1.62.32a.94.94,0,0,1-.07.4.69.69,0,0,1-.27.29H40a1.09,1.09,0,0,1,.08-.47.34.34,0,0,1,.21-.21l1.29-.29-.21.5V71l.23.35L40,71a.83.83,0,0,1,.07-.41.7.7,0,0,1,.26-.28h2.35l7.55,10.52-.52.13V71l.11.43L48.24,71a1,1,0,0,1,.07-.41.83.83,0,0,1,.28-.28H52a1.25,1.25,0,0,1-.07.47.35.35,0,0,1-.23.21l-1.28.29.2-.43v11a.26.26,0,0,1-.1.2.61.61,0,0,1-.24.15A.56.56,0,0,1,50,82.29Z" transform="translate(-8 -5.51)"/><path class="cls-5" d="M55.47,82.26a1.09,1.09,0,0,1,.08-.47.38.38,0,0,1,.22-.21L57,81.24l-.28.3V71l.26.31L55.47,71a1,1,0,0,1,.07-.41.69.69,0,0,1,.28-.28h7.85v2.34a1.08,1.08,0,0,1-.47-.07.35.35,0,0,1-.22-.24l-.47-1.44.27.17-4.72.26.2-.24v4.83l-.18-.13H62l-.24.13L62,74.6a1.15,1.15,0,0,1,.37.06.55.55,0,0,1,.32.22v2.63a.58.58,0,0,1-.32.21,2.29,2.29,0,0,1-.37,0l-.3-1.34.26.16h-3.9l.19-.16v5l-.19-.2,5.2.34-.24.24.5-2.23a.87.87,0,0,1,.42.07.89.89,0,0,1,.29.22v2.46Z" transform="translate(-8 -5.51)"/><path class="cls-5" d="M77.57,82.48a5.28,5.28,0,0,1-2-.36A3.26,3.26,0,0,1,74.18,81a2.85,2.85,0,0,1-.54-1.76,2.92,2.92,0,0,1,.42-1.61,3.88,3.88,0,0,1,1.08-1.13,11.3,11.3,0,0,1,1.41-.86A16.19,16.19,0,0,0,78,74.8a4.11,4.11,0,0,0,1.08-1,2.26,2.26,0,0,0,.42-1.39A1.85,1.85,0,0,0,79,71.16a1.5,1.5,0,0,0-1.21-.49,1.66,1.66,0,0,0-1.24.49,1.69,1.69,0,0,0-.49,1.26,2.47,2.47,0,0,0,.39,1.29,15.23,15.23,0,0,0,1.28,1.71l4,4.5a5,5,0,0,0,1,.89,3.2,3.2,0,0,0,1.08.44,6.38,6.38,0,0,0,1.38.12.9.9,0,0,1-.16.5,1.18,1.18,0,0,1-.51.43,1.86,1.86,0,0,1-.84.17,3.62,3.62,0,0,1-1.48-.36,4.43,4.43,0,0,1-1.48-1.2l-4.14-4.83a16.37,16.37,0,0,1-1.06-1.42,5,5,0,0,1-.56-1.1,3,3,0,0,1-.16-.93,2.3,2.3,0,0,1,.85-1.89,3.36,3.36,0,0,1,2.18-.69,3.51,3.51,0,0,1,1.43.28,2.44,2.44,0,0,1,1,.8,2.2,2.2,0,0,1,.37,1.27,2.4,2.4,0,0,1-.39,1.37,4,4,0,0,1-1,1c-.41.28-.86.55-1.32.81a12.19,12.19,0,0,0-1.33.82,4,4,0,0,0-1,1,2.69,2.69,0,0,0-.39,1.49,3,3,0,0,0,.34,1.44,2.53,2.53,0,0,0,1,1,2.82,2.82,0,0,0,1.45.34,3.64,3.64,0,0,0,2.47-.93A5.92,5.92,0,0,0,82,78.15a11.58,11.58,0,0,0,.58-3.87l.29.44-2-.09a1.69,1.69,0,0,1,0-.45.4.4,0,0,1,.18-.26l4.25-.31a.87.87,0,0,1,.07.17V74a.92.92,0,0,1-.14.48.67.67,0,0,1-.38.3l-1.57-.06.32-.43a11.22,11.22,0,0,1-.41,3.31,7.54,7.54,0,0,1-1.25,2.58,5.78,5.78,0,0,1-2,1.67A5.55,5.55,0,0,1,77.57,82.48Z" transform="translate(-8 -5.51)"/><path class="cls-5" d="M98.27,82.48A7.69,7.69,0,0,1,97,82.37,11.37,11.37,0,0,1,95.6,82a9.39,9.39,0,0,1-1.28-.49L94.67,79a.52.52,0,0,1,.48-.26h.2a.22.22,0,0,1,.16,0l.13,2.59-.35-.73a4.08,4.08,0,0,0,.89.5,8.3,8.3,0,0,0,1.07.34,4.81,4.81,0,0,0,1,.13,2.47,2.47,0,0,0,1.76-.63,2.14,2.14,0,0,0,.7-1.62,1.92,1.92,0,0,0-.24-1,2.38,2.38,0,0,0-.84-.8,12.22,12.22,0,0,0-1.73-.88,10.1,10.1,0,0,1-1.86-1,2.9,2.9,0,0,1-1.3-2.54,2.83,2.83,0,0,1,1-2.26A3.63,3.63,0,0,1,98.28,70a7,7,0,0,1,1.64.2,8.23,8.23,0,0,1,1.72.62l-.28,2.42a1,1,0,0,1-.48-.09.32.32,0,0,1-.19-.23L100.45,71l.39.7a3,3,0,0,0-1.11-.7,4.28,4.28,0,0,0-1.46-.26,2.4,2.4,0,0,0-1.63.52,1.82,1.82,0,0,0-.6,1.39,2,2,0,0,0,.25,1,2.57,2.57,0,0,0,.86.81,12.22,12.22,0,0,0,1.73.88,10.36,10.36,0,0,1,2,1.06,3.2,3.2,0,0,1,1,1.13,3,3,0,0,1,.3,1.42,3.3,3.3,0,0,1-.48,1.81A3.18,3.18,0,0,1,100.34,82,4.75,4.75,0,0,1,98.27,82.48Z" transform="translate(-8 -5.51)"/><path class="cls-5" d="M106,82.26a1.09,1.09,0,0,1,.08-.47.38.38,0,0,1,.22-.21l1.28-.34-.29.3V71l.26.31L106,71a1,1,0,0,1,.06-.42.55.55,0,0,1,.25-.27h4.78a4.33,4.33,0,0,1,2.09.44A2.94,2.94,0,0,1,114.47,72a3.35,3.35,0,0,1,.43,1.64,3.61,3.61,0,0,1-.54,1.89A4.1,4.1,0,0,1,112.82,77a4.88,4.88,0,0,1-2.4.56,8.39,8.39,0,0,1-1-.06,6.78,6.78,0,0,1-1-.19h.31v4.44l-.34-.43,1.81.35a1.29,1.29,0,0,1-.07.43.68.68,0,0,1-.27.26Zm2.83-5.61-.28-.32a3.2,3.2,0,0,0,.81.2,9.77,9.77,0,0,0,1.08.06,2.91,2.91,0,0,0,1.56-.38,2.4,2.4,0,0,0,.92-1,3,3,0,0,0,.31-1.38,2.63,2.63,0,0,0-.72-2,2.73,2.73,0,0,0-2-.69,7.55,7.55,0,0,0-1.06.07c-.35.06-.63.11-.88.17l.26-.26Z" transform="translate(-8 -5.51)"/><path class="cls-5" d="M118.25,82.26a1.09,1.09,0,0,1,.08-.47.38.38,0,0,1,.22-.21l1.25-.34-.28.3V71l.3.31L118.25,71a.84.84,0,0,1,.08-.41.61.61,0,0,1,.27-.28h3.74a1.21,1.21,0,0,1-.08.46A.36.36,0,0,1,122,71l-1.32.34L121,71V81.55l-.34-.32,1.64.35a1.07,1.07,0,0,1-.07.39.77.77,0,0,1-.27.3Z" transform="translate(-8 -5.51)"/><path class="cls-5" d="M126.19,82.26a1.09,1.09,0,0,1,.08-.47.38.38,0,0,1,.22-.21l1.29-.34-.3.3V71l.26.31L126.23,71a1,1,0,0,1,.06-.42.57.57,0,0,1,.26-.27h4.77a4.19,4.19,0,0,1,2,.42A2.88,2.88,0,0,1,135,73.39a3.36,3.36,0,0,1-.52,1.79A4,4,0,0,1,133,76.54a5,5,0,0,1-2.34.52,8.39,8.39,0,0,1-1-.06,6.17,6.17,0,0,1-.95-.2H129v4.85l-.41-.43,1.81.35a1.07,1.07,0,0,1-.06.43.68.68,0,0,1-.27.26Zm2.83-6-.27-.31a3.66,3.66,0,0,0,.81.18,9.59,9.59,0,0,0,1.07.06,2.81,2.81,0,0,0,1.5-.34,2.34,2.34,0,0,0,.88-.94,2.75,2.75,0,0,0,.3-1.26,2.46,2.46,0,0,0-.69-1.86,2.75,2.75,0,0,0-1.92-.64,7.55,7.55,0,0,0-1.06.07c-.34.06-.62.11-.87.17l.26-.26Zm6.62,6.21a1.82,1.82,0,0,1-1-.39,6.37,6.37,0,0,1-1.18-1.14,12.63,12.63,0,0,1-1.27-1.82A23.19,23.19,0,0,1,131,76.66l1.14-.39a28.35,28.35,0,0,0,1.64,2.55,17.27,17.27,0,0,0,1.62,2,6.11,6.11,0,0,0,1.36,1.12,1.83,1.83,0,0,1-.49.39,1.23,1.23,0,0,1-.63.13Z" transform="translate(-8 -5.51)"/><path class="cls-5" d="M139.74,82.26a1.09,1.09,0,0,1,.08-.47.38.38,0,0,1,.22-.21l1.24-.34-.27.3V71l.3.31L139.74,71a.84.84,0,0,1,.08-.41.61.61,0,0,1,.27-.28h3.75a1.47,1.47,0,0,1-.07.46.37.37,0,0,1-.23.21l-1.32.34.32-.31V81.55l-.35-.32,1.64.35a1.32,1.32,0,0,1-.06.39.89.89,0,0,1-.28.3Z" transform="translate(-8 -5.51)"/><path class="cls-5" d="M149.9,82.26a1.25,1.25,0,0,1,.07-.47.35.35,0,0,1,.23-.21l1.56-.4-.28.37V71.09l.21.24-3.64-.25.26-.17-.48,1.62a.35.35,0,0,1-.19.25,1.09,1.09,0,0,1-.47.08V70.31h10.14v2.55a1,1,0,0,1-.46-.08.43.43,0,0,1-.23-.25l-.44-1.62.26.17-3.63.25.2-.24V81.53l-.3-.35,2.13.38a1.07,1.07,0,0,1-.07.39.86.86,0,0,1-.27.3Z" transform="translate(-8 -5.51)"/><path class="cls-5" d="M163.89,82.48a7.69,7.69,0,0,1-1.27-.11,11.37,11.37,0,0,1-1.4-.33,9.39,9.39,0,0,1-1.28-.49l.35-2.52a.52.52,0,0,1,.48-.26h.2a.22.22,0,0,1,.16,0l.13,2.59-.35-.73a4.4,4.4,0,0,0,.9.5,8.3,8.3,0,0,0,1.07.34,4.22,4.22,0,0,0,1,.13,2.47,2.47,0,0,0,1.76-.63,2.09,2.09,0,0,0,.69-1.62,1.82,1.82,0,0,0-.23-1,2.38,2.38,0,0,0-.84-.8,12.22,12.22,0,0,0-1.73-.88,10.73,10.73,0,0,1-1.86-1,2.9,2.9,0,0,1-1.3-2.54,2.9,2.9,0,0,1,1-2.26,3.64,3.64,0,0,1,2.54-.86,7,7,0,0,1,1.64.2,8.11,8.11,0,0,1,1.73.62L167,73.3a1.12,1.12,0,0,1-.48-.1.28.28,0,0,1-.19-.22l-.24-1.86.39.69a2.85,2.85,0,0,0-1.11-.69,4.12,4.12,0,0,0-1.47-.27,2.38,2.38,0,0,0-1.62.53,2,2,0,0,0-.35,2.38,2.39,2.39,0,0,0,.86.81,12.22,12.22,0,0,0,1.73.88,11.15,11.15,0,0,1,1.95,1.06,3.39,3.39,0,0,1,1,1.13,3.15,3.15,0,0,1,.3,1.42,3.3,3.3,0,0,1-.48,1.81A3.17,3.17,0,0,1,166,82,4.65,4.65,0,0,1,163.89,82.48Z" transform="translate(-8 -5.51)"/><path class="cls-5" d="M179.4,82.26a1.25,1.25,0,0,1,.07-.47.37.37,0,0,1,.23-.21l1.56-.4-.28.37V71.09l.21.24-3.64-.25.26-.17-.48,1.62a.35.35,0,0,1-.19.25,1,1,0,0,1-.46.08V70.31h10.14v2.55a1.09,1.09,0,0,1-.47-.08.39.39,0,0,1-.22-.25l-.45-1.62.26.17-3.64.25.21-.24V81.53l-.3-.35,2.12.38a.89.89,0,0,1-.06.39.77.77,0,0,1-.27.3Z" transform="translate(-8 -5.51)"/><path class="cls-5" d="M187.93,82.26a1.27,1.27,0,0,1,.09-.47.32.32,0,0,1,.21-.21l1.1-.34-.47.49L193,70.4a.35.35,0,0,1,.2-.23,1,1,0,0,1,.29-.1h.76l4.5,11.57-.6-.46,1.66.34a.87.87,0,0,1-.07.39.89.89,0,0,1-.28.3H195.7a1,1,0,0,1,.08-.46.35.35,0,0,1,.22-.21l1.27-.35-.17.37-4-10.19h.39l-3.78,10.38v-.52l1.65.34a.89.89,0,0,1-.06.39.75.75,0,0,1-.31.3Zm2.84-4,.2-.78h4.9l.25.78Z" transform="translate(-8 -5.51)"/><path class="cls-5" d="M206.36,82.48a7.66,7.66,0,0,1-1.26-.11,11.11,11.11,0,0,1-1.41-.33,10.92,10.92,0,0,1-1.28-.49l.35-2.52a.54.54,0,0,1,.49-.26h.19a.22.22,0,0,1,.16,0l.13,2.59-.35-.73a5.2,5.2,0,0,0,.89.5,8,8,0,0,0,1.08.34,4.81,4.81,0,0,0,1,.13,2.44,2.44,0,0,0,1.78-.62,2.13,2.13,0,0,0,.7-1.62,1.92,1.92,0,0,0-.24-1,2.38,2.38,0,0,0-.84-.8,12.22,12.22,0,0,0-1.73-.88,10.82,10.82,0,0,1-1.87-1,3,3,0,0,1-1-1.12,3.18,3.18,0,0,1-.3-1.42,2.83,2.83,0,0,1,1-2.26,3.73,3.73,0,0,1,2.54-.85,7,7,0,0,1,1.64.2,8.23,8.23,0,0,1,1.72.62l-.28,2.43a1.12,1.12,0,0,1-.48-.1.28.28,0,0,1-.19-.22l-.25-1.86.4.69a2.85,2.85,0,0,0-1.11-.69,4.12,4.12,0,0,0-1.47-.27,2.38,2.38,0,0,0-1.62.53,2,2,0,0,0-.35,2.34,2.57,2.57,0,0,0,.86.81,12.22,12.22,0,0,0,1.73.88,10.33,10.33,0,0,1,2,1.1,3.2,3.2,0,0,1,1,1.13,3,3,0,0,1,.31,1.42,3.25,3.25,0,0,1-1.84,3A4.93,4.93,0,0,1,206.36,82.48Z" transform="translate(-8 -5.51)"/><path class="cls-5" d="M215.72,82.26a1.09,1.09,0,0,1,.08-.47.35.35,0,0,1,.22-.21l1.56-.4-.28.37V71.09l.21.24-3.63-.25.26-.17-.49,1.62a.35.35,0,0,1-.19.25,1,1,0,0,1-.46.08V70.31h10.14v2.55a1.09,1.09,0,0,1-.47-.08.45.45,0,0,1-.22-.25L222,70.91l.26.17-3.63.25.2-.24V81.52l-.29-.34,2.12.37a1.07,1.07,0,0,1-.07.39.71.71,0,0,1-.27.3Z" transform="translate(-8 -5.51)"/><path class="cls-5" d="M226.51,82.26a1,1,0,0,1,.09-.47.34.34,0,0,1,.21-.21l1.25-.34-.28.3V71l.29.31L226.51,71a1.14,1.14,0,0,1,.07-.41.71.71,0,0,1,.29-.28h3.74a1,1,0,0,1-.08.46.31.31,0,0,1-.22.21l-1.32.34.31-.31V81.55l-.34-.32,1.64.35a1.07,1.07,0,0,1-.07.39.77.77,0,0,1-.27.3Z" transform="translate(-8 -5.51)"/><path class="cls-5" d="M244.42,82.29h-.59L236.47,72l.2-.11v9.88l-.12-.45,1.62.32a1.12,1.12,0,0,1-.07.4.69.69,0,0,1-.27.29h-3.39a1.09,1.09,0,0,1,.08-.47.38.38,0,0,1,.22-.21l1.26-.36-.2.5V71l.22.35-1.6-.32a.84.84,0,0,1,.08-.41.7.7,0,0,1,.26-.28h2.34l7.55,10.51-.52.13V71l.11.43-1.6-.41a1,1,0,0,1,.07-.41.93.93,0,0,1,.28-.28h3.4a1.26,1.26,0,0,1-.08.47.38.38,0,0,1-.22.21l-1.29.29.21-.43v11a.31.31,0,0,1-.11.2.61.61,0,0,1-.24.15A.64.64,0,0,1,244.42,82.29Z" transform="translate(-8 -5.51)"/><path class="cls-5" d="M255.23,82.48a5.82,5.82,0,0,1-2.92-.71,5,5,0,0,1-1.95-2,6.38,6.38,0,0,1-.69-3,7.42,7.42,0,0,1,.47-2.68,6.74,6.74,0,0,1,1.3-2.13,5.89,5.89,0,0,1,2-1.42,6,6,0,0,1,2.48-.5,7.6,7.6,0,0,1,1.84.23,6.15,6.15,0,0,1,1.63.69L259,73.59a2.31,2.31,0,0,1-.52-.12.32.32,0,0,1-.19-.26l-.13-1.67.24.34a2.8,2.8,0,0,0-1.22-.6,6.05,6.05,0,0,0-1.69-.24,3.88,3.88,0,0,0-2.22.63,4,4,0,0,0-1.46,1.79,6.92,6.92,0,0,0-.51,2.77,7,7,0,0,0,.52,2.83,4.23,4.23,0,0,0,1.48,1.84,3.89,3.89,0,0,0,2.27.66,3.6,3.6,0,0,0,2.63-1l-.26.6V77.43l.26.43-1.83-.37a.84.84,0,0,1,.08-.41.8.8,0,0,1,.28-.27h3.59a1.17,1.17,0,0,1-.06.45.53.53,0,0,1-.24.23l-1,.34.35-.42v3.76a7.5,7.5,0,0,1-2,1A7.74,7.74,0,0,1,255.23,82.48Z" transform="translate(-8 -5.51)"/><path class="cls-5" d="M267.77,82.48a7.69,7.69,0,0,1-1.27-.11,11.37,11.37,0,0,1-1.4-.33,9.39,9.39,0,0,1-1.28-.49l.35-2.52a.52.52,0,0,1,.48-.26h.2a.22.22,0,0,1,.16,0l.12,2.59-.34-.73a4.08,4.08,0,0,0,.89.5,8.3,8.3,0,0,0,1.07.34,4.81,4.81,0,0,0,1,.13,2.47,2.47,0,0,0,1.76-.63,2.09,2.09,0,0,0,.69-1.62,1.82,1.82,0,0,0-.23-1,2.38,2.38,0,0,0-.84-.8,12.22,12.22,0,0,0-1.73-.88,10.82,10.82,0,0,1-1.87-1,2.93,2.93,0,0,1-1.28-2.54,2.83,2.83,0,0,1,1-2.26,3.63,3.63,0,0,1,2.54-.85,7,7,0,0,1,1.64.2,8.23,8.23,0,0,1,1.72.62l-.28,2.42a1,1,0,0,1-.48-.09.32.32,0,0,1-.19-.23l-.2-1.82.4.7a3,3,0,0,0-1.11-.7,4.34,4.34,0,0,0-1.47-.26,2.37,2.37,0,0,0-1.62.52,1.78,1.78,0,0,0-.59,1.39,1.85,1.85,0,0,0,.24,1,2.57,2.57,0,0,0,.86.81,12.22,12.22,0,0,0,1.73.88,10.22,10.22,0,0,1,1.95,1.06,3.2,3.2,0,0,1,1,1.13,3,3,0,0,1,.31,1.42,3.3,3.3,0,0,1-.48,1.81,3.18,3.18,0,0,1-1.36,1.21A4.69,4.69,0,0,1,267.77,82.48Z" transform="translate(-8 -5.51)"/></g></svg>