<svg id="Layer_1" data-name="Layer 1" xmlns="http://www.w3.org/2000/svg" viewBox="0 0 263.84 282"><defs><style>.cls-1{fill:none;stroke:#a83e51;stroke-linecap:round;stroke-linejoin:round;stroke-width:3px;}.cls-2{fill:#a83e51;}</style></defs><title>sales</title><ellipse class="cls-1" cx="94.5" cy="24.75" rx="93" ry="23.25"/><line class="cls-1" x1="1.5" y1="71.25" x2="1.5" y2="24.75"/><line class="cls-1" x1="187.5" y1="71.25" x2="187.5" y2="24.75"/><path class="cls-1" d="M210.58,85.25v46.5a7.9,7.9,0,0,1-2.54,5.38,73.53,73.53,0,0,0-41.71,14.46A327.85,327.85,0,0,1,117.58,155c-51.37,0-93-10.39-93-23.25V85.25c0,12.86,41.63,23.25,93,23.25S210.58,98.11,210.58,85.25Z" transform="translate(-23.08 -14)"/><path class="cls-1" d="M166.33,151.59a71.56,71.56,0,0,0-20.05,21.94A73.8,73.8,0,0,0,136.55,201c-6.11.36-12.43.51-19,.51-51.37,0-93-10.39-93-23.25v-46.5c0,12.86,41.63,23.25,93,23.25A327.85,327.85,0,0,0,166.33,151.59Z" transform="translate(-23.08 -14)"/><path class="cls-1" d="M144.46,247c-8.5.66-17.51,1-26.88,1-51.37,0-93-10.39-93-23.25v-46.5c0,12.86,41.63,23.25,93,23.25,6.54,0,12.86-.15,19-.51a75.3,75.3,0,0,0,2.61,33.35A69.85,69.85,0,0,0,144.46,247Z" transform="translate(-23.08 -14)"/><path class="cls-1" d="M194.23,284.4c-.29.07-.58.22-.87.29" transform="translate(-23.08 -14)"/><path class="cls-1" d="M193.29,284.69c-16.86,6-44.47,9.81-75.71,9.81-51.37,0-93-10.39-93-23.25v-46.5c0,12.86,41.63,23.25,93,23.25,9.37,0,18.38-.36,26.88-1a75.13,75.13,0,0,0,45,36.77A33.13,33.13,0,0,0,193.29,284.69Z" transform="translate(-23.08 -14)"/><path class="cls-1" d="M285.42,211.89a74.83,74.83,0,0,1-74.84,74.84,71.21,71.21,0,0,1-17.22-2h-.07a33.13,33.13,0,0,1-3.78-.94,75.13,75.13,0,0,1-45-36.77,69.85,69.85,0,0,1-5.3-12.64A75.3,75.3,0,0,1,136.55,201a73.8,73.8,0,0,1,9.73-27.46,71.56,71.56,0,0,1,20.05-21.94A73.53,73.53,0,0,1,208,137.13c.87-.08,1.67-.08,2.54-.08A74.83,74.83,0,0,1,285.42,211.89Z" transform="translate(-23.08 -14)"/><path class="cls-2" d="M232.6,233.87a15.17,15.17,0,0,1-3.8,5.14,19.19,19.19,0,0,1-5.84,3.54,26.24,26.24,0,0,1-7.58,1.7v8.63h-7.59v-8.72a40,40,0,0,1-20.57-8.63l5.58-7.93a42.81,42.81,0,0,0,7.41,4.92,26.64,26.64,0,0,0,7.93,2.57V218a52.2,52.2,0,0,1-8.28-2.79,21.51,21.51,0,0,1-5.8-3.71,13.45,13.45,0,0,1-3.44-5,17.28,17.28,0,0,1-1.13-6.49,15.87,15.87,0,0,1,1.3-6.46,15,15,0,0,1,3.75-5.14,19.16,19.16,0,0,1,5.8-3.49,27,27,0,0,1,7.45-1.66v-5.05h7.59v5.23a33.59,33.59,0,0,1,8.76,2.26,36.33,36.33,0,0,1,7.63,4.37l-4.88,8.19A30,30,0,0,0,215,192.72v16.57q9.94,2.52,14.43,6.76T234,227.34A15.54,15.54,0,0,1,232.6,233.87Zm-24.46-41.76a9.85,9.85,0,0,0-6.28,2.4,6.63,6.63,0,0,0-2.08,4.93,6.75,6.75,0,0,0,1.65,4.66c1.11,1.25,3.34,2.37,6.71,3.35Zm15.13,33.18a5.54,5.54,0,0,0-1.39-2.18,10.33,10.33,0,0,0-2.66-1.83,27.54,27.54,0,0,0-4.19-1.62v15.79a10.76,10.76,0,0,0,6.41-2.36,6.62,6.62,0,0,0,2.22-5.14A8.41,8.41,0,0,0,223.27,225.29Z" transform="translate(-23.08 -14)"/></svg>