<?xml version="1.0" encoding="utf-8"?>
<!-- Generator: Adobe Illustrator 23.0.0, SVG Export Plug-In . SVG Version: 6.00 Build 0)  -->
<svg version="1.1" id="Layer_1" xmlns="http://www.w3.org/2000/svg" xmlns:xlink="http://www.w3.org/1999/xlink" x="0px" y="0px"
	 viewBox="0 0 263.8 282" style="enable-background:new 0 0 263.8 282;" xml:space="preserve">
<style type="text/css">
	.st0{fill:none;stroke:#A83E51;stroke-width:3;stroke-linecap:round;stroke-linejoin:round;}
	.st1{fill:#A83E51;}
	.st2{fill:none;stroke:#B7A9A9;stroke-width:3;stroke-linecap:round;stroke-linejoin:round;stroke-dasharray:11.9114,11.9114;}
</style>
<title>sales</title>
<g>
	<ellipse class="st0" cx="121.7" cy="75.3" rx="55.1" ry="13.1"/>
	<line class="st0" x1="66.6" y1="101.6" x2="66.6" y2="75.3"/>
	<line class="st0" x1="176.9" y1="101.6" x2="176.9" y2="75.3"/>
	<path class="st0" d="M176.9,101.6v26.3c-0.1,1.2-0.6,2.3-1.5,3c-8.9,0.2-17.6,3.1-24.7,8.2c-9.6,1.3-19.2,2-28.9,1.9
		c-30.4,0-55.1-5.9-55.1-13.1v-26.3c0,7.3,24.7,13.1,55.1,13.1S176.9,108.8,176.9,101.6z"/>
	<path class="st0" d="M150.6,139.1c-4.8,3.3-8.9,7.5-11.9,12.4c-3,4.8-4.9,10-5.8,15.5c-3.6,0.2-7.4,0.3-11.3,0.3
		c-30.4,0-55.1-5.9-55.1-13.1v-26.3c0,7.3,24.7,13.1,55.1,13.1C131.4,141,141.1,140.4,150.6,139.1z"/>
	<path class="st0" d="M137.7,193c-5,0.4-10.4,0.6-15.9,0.6c-30.4,0-55.1-5.9-55.1-13.1v-26.3c0,7.3,24.7,13.1,55.1,13.1
		c3.9,0,7.6-0.1,11.3-0.3c-1,6.3-0.4,12.8,1.5,18.9C135.4,188.3,136.4,190.7,137.7,193z"/>
	<path class="st0" d="M167.2,214.2c-0.2,0-0.3,0.1-0.5,0.2"/>
	<path class="st0" d="M166.6,214.3c-10,3.4-26.4,5.5-44.9,5.5c-30.4,0-55.1-5.9-55.1-13.1v-26.3c0,7.3,24.7,13.1,55.1,13.1
		c5.6,0,10.9-0.2,15.9-0.6c5.6,10.1,15.2,17.6,26.7,20.8C165.1,214,165.9,214.2,166.6,214.3z"/>
	<path class="st0" d="M221.2,173.2c0,23.4-19.9,42.3-44.3,42.3c0,0,0,0,0,0c-3.4,0-6.9-0.4-10.2-1.1h0c-0.8-0.1-1.5-0.3-2.2-0.5
		c-11.5-3.2-21.1-10.7-26.7-20.8c-1.3-2.3-2.3-4.7-3.1-7.1c-2-6.1-2.5-12.6-1.6-18.9c0.8-5.5,2.8-10.8,5.8-15.5
		c3-4.9,7.1-9.1,11.9-12.4c7.2-5.1,15.8-7.9,24.7-8.2c0.5,0,1,0,1.5,0C201.3,130.8,221.2,149.8,221.2,173.2
		C221.2,173.1,221.2,173.2,221.2,173.2z"/>
	<path class="st1" d="M189.9,185.6c-0.5,1.1-1.3,2.1-2.3,2.9c-1,0.9-2.2,1.5-3.5,2c-1.4,0.5-3,0.9-4.5,1v4.9h-4.5v-4.9
		c-4.5-0.5-8.7-2.2-12.2-4.9l3.3-4.5c1.4,1.1,2.8,2,4.4,2.8c1.5,0.7,3.1,1.2,4.7,1.5v-9.7c-1.7-0.4-3.3-0.9-4.9-1.6
		c-1.3-0.5-2.4-1.2-3.4-2.1c-0.9-0.8-1.6-1.7-2-2.8c-0.5-1.2-0.7-2.4-0.7-3.7c0-1.3,0.2-2.5,0.8-3.7c0.5-1.1,1.3-2.1,2.2-2.9
		c1-0.8,2.2-1.5,3.4-2c1.4-0.5,2.9-0.8,4.4-0.9v-2.9h4.5v3c1.8,0.2,3.5,0.6,5.2,1.3c1.6,0.6,3.1,1.5,4.5,2.5l-2.9,4.6
		c-2.1-1.5-4.5-2.6-7-3.1v9.4c3.9,0.9,6.8,2.2,8.6,3.8c1.8,1.6,2.7,3.7,2.7,6.4C190.8,183.2,190.5,184.4,189.9,185.6z M175.4,162
		c-1.4,0-2.7,0.5-3.7,1.4c-0.8,0.7-1.3,1.7-1.2,2.8c0,1,0.3,1.9,1,2.6c0.7,0.7,2,1.3,4,1.9V162z M184.4,180.7
		c-0.2-0.5-0.5-0.9-0.8-1.2c-0.5-0.4-1-0.8-1.6-1c-0.8-0.4-1.6-0.7-2.5-0.9v8.9c1.4,0,2.7-0.5,3.8-1.3c0.9-0.7,1.3-1.8,1.3-2.9
		C184.6,181.7,184.6,181.2,184.4,180.7L184.4,180.7z"/>
</g>
<g>
	<circle class="st2" cx="131.9" cy="141" r="117.5"/>
</g>
</svg>
